<svg width="20" height="20" viewBox="0 0 20 20" fill="none" xmlns="http://www.w3.org/2000/svg">
<path fill-rule="evenodd" clip-rule="evenodd" d="M0.478027 0.477295H9.05794V9.05721H0.478027V0.477295ZM14.4199 14.4203V15.4928H13.3474V16.5653H11.2024V19.7828H13.3474V17.6378H15.4924V15.4928H16.5648V13.3479H14.4199V11.2029H11.2024V14.4203H14.4199ZM15.4934 17.6371V19.7821H19.7833V15.4921H17.6384V17.6371H15.4934ZM2.62329 6.91178V2.62183H6.91325V6.91178H2.62329ZM11.2025 0.4773H19.7824V9.05721H11.2025V0.4773ZM13.3477 6.91178V2.62183H17.6376V6.91178H13.3477ZM0.478027 11.2029H9.05794V19.7828H0.478027V11.2029ZM2.62325 17.6374V13.3474H6.91321V17.6374H2.62325ZM16.5654 11.2029H19.7829V13.3479H16.5648L16.5654 11.2029ZM5.84083 3.69483H3.69585V5.83981H5.84083V3.69483ZM3.69585 14.4198H5.84083V16.5648H3.69585V14.4198ZM16.5652 3.69483H14.4203V5.83981H16.5652V3.69483Z" fill="#3E7EFF"/>
</svg>
