<svg width="26" height="26" viewBox="0 0 26 26" fill="none" xmlns="http://www.w3.org/2000/svg">
<rect width="26" height="26" rx="13" fill="#F7931A"/>
<path fill-rule="evenodd" clip-rule="evenodd" d="M17.9708 11.2124C18.2084 9.62683 17.0003 8.77429 15.3497 8.20542L15.8853 6.05705L14.5781 5.73177L14.0561 7.82341C13.7198 7.73896 13.3748 7.66032 13.0303 7.5818L13.0303 7.58179L13.0084 7.5768L13.5342 5.47155L12.227 5.14551L11.6914 7.29312L11.6342 7.28005C11.3695 7.21952 11.1089 7.15996 10.8563 7.09644L10.8578 7.08963L9.05435 6.63953L8.70637 8.03597C8.70637 8.03597 9.67692 8.25837 9.6565 8.27199C10.186 8.40437 10.2813 8.75462 10.2655 9.033L9.65574 11.4802C9.69205 11.4892 9.73895 11.5029 9.7919 11.5233L9.65347 11.4892L8.79866 14.9176C8.73361 15.0779 8.56945 15.3192 8.19878 15.2277C8.2124 15.2466 7.24866 14.9909 7.24866 14.9909L6.59961 16.4872L8.30166 16.9116C8.4844 16.9575 8.66512 17.0047 8.84396 17.0514L8.84411 17.0514L8.84439 17.0515C8.97487 17.0855 9.10434 17.1193 9.23287 17.1522L8.692 19.3247L9.99842 19.65L10.534 17.5017C10.8911 17.5977 11.2375 17.687 11.5764 17.7717L11.0423 19.911L12.3495 20.2363L12.8904 18.0683C15.1205 18.4904 16.7968 18.3202 17.5026 16.3034C18.0714 14.68 17.4746 13.7428 16.3013 13.1323C17.1561 12.9356 17.7991 12.3736 17.9708 11.2124ZM14.9814 15.4014C14.6116 16.8913 12.2797 16.2754 11.2124 15.9935L11.2123 15.9935C11.1162 15.9681 11.0303 15.9454 10.957 15.9272L11.6757 13.0488C11.765 13.0712 11.8743 13.0957 11.9981 13.1235L11.9981 13.1235C13.1021 13.3715 15.3617 13.8791 14.9814 15.4014ZM12.2209 11.7877C13.1103 12.0252 15.0497 12.543 15.3873 11.189C15.7326 9.80419 13.8474 9.38713 12.9265 9.18342C12.8227 9.16046 12.7311 9.1402 12.6564 9.12158L12.0059 11.7314C12.0675 11.7468 12.1398 11.7661 12.2209 11.7877Z" fill="white"/>
</svg>
