<svg width="30" height="30" viewBox="0 0 30 30" fill="none" xmlns="http://www.w3.org/2000/svg">
<path d="M30 15C30 23.2843 23.2843 30 15 30C6.71573 30 0 23.2843 0 15C0 6.71573 6.71573 0 15 0C23.2843 0 30 6.71573 30 15Z" fill="#E8ECEF"/>
<path d="M14.7656 20.0189V24.6921L20.487 16.6123L14.7656 20.0189Z" fill="#3C3C3B"/>
<path d="M14.7651 6L20.4865 15.5211L14.7651 18.9277L9 15.5211" fill="#343434"/>
<path fill-rule="evenodd" clip-rule="evenodd" d="M14.7651 12.9006V6L9 15.5211L14.7651 12.9006ZM14.7651 20.0198L9.00004 16.6132L14.7651 24.693V20.0198Z" fill="#8C8C8C"/>
<path d="M14.7651 12.9006V18.9277L20.4865 15.5211" fill="#141414"/>
<path d="M9 15.5211L14.7651 12.9006V18.9277" fill="#393939"/>
</svg>
