<svg width="14" height="14" viewBox="0 0 14 14" fill="none" xmlns="http://www.w3.org/2000/svg">
<path opacity="0.8" d="M8.12736 7.00012L12.9197 11.7927C13.2316 12.1045 13.2316 12.6085 12.9197 12.9202C12.608 13.232 12.104 13.232 11.7922 12.9202L6.99972 8.12763L2.20735 12.9202C1.89547 13.232 1.39159 13.232 1.07986 12.9202C0.767977 12.6085 0.767977 12.1045 1.07986 11.7927L5.87222 7.00012L1.07986 2.2075C0.767977 1.89576 0.767977 1.39172 1.07986 1.07998C1.23521 0.924479 1.43948 0.846361 1.6436 0.846361C1.84773 0.846361 2.05185 0.924479 2.20735 1.07998L6.99972 5.8726L11.7922 1.07998C11.9477 0.924479 12.1519 0.846361 12.356 0.846361C12.5601 0.846361 12.7642 0.924479 12.9197 1.07998C13.2316 1.39172 13.2316 1.89576 12.9197 2.2075L8.12736 7.00012Z" fill="#8A8B9D"/>
</svg>
