<svg width="18" height="22" viewBox="0 0 18 22" fill="currentColor" xmlns="http://www.w3.org/2000/svg">
<path fill-rule="evenodd" clip-rule="evenodd" d="M2.4375 1.9375L2.4375 13.1404H14.2387C14.717 13.1404 15.1358 12.8615 15.3771 12.3908C15.6194 11.918 15.6404 11.3189 15.3434 10.7986L14.7314 9.72626C13.9647 8.38301 13.9647 6.6949 14.7314 5.35165L15.3434 4.27934C15.6404 3.75905 15.6194 3.1599 15.3771 2.68706C15.1358 2.21639 14.717 1.9375 14.2387 1.9375L2.4375 1.9375ZM2.4375 15.0154H14.2387C15.5299 15.0154 16.5367 14.239 17.0457 13.2461C17.5535 12.2553 17.6072 10.9824 16.9718 9.86914L16.3598 8.79683C15.9219 8.02959 15.9219 7.04832 16.3598 6.28108L16.9718 5.20877C17.6072 4.09553 17.5535 2.82265 17.0457 1.83184C16.5367 0.838875 15.5299 0.0624999 14.2387 0.0625L1.5 0.0625006C0.982233 0.0625007 0.5625 0.482234 0.5625 1L0.562501 21C0.562501 21.5178 0.982234 21.9375 1.5 21.9375C2.01777 21.9375 2.4375 21.5178 2.4375 21V15.0154Z"/>
</svg>
