<svg width="26" height="26" viewBox="0 0 26 26" fill="currentColor" xmlns="http://www.w3.org/2000/svg">
<path fill-rule="evenodd" clip-rule="evenodd" d="M10.5 2.6875C8.16641 2.6875 6.33336 4.50321 6.33336 6.67188C6.33336 8.84054 8.16641 10.6562 10.5 10.6562C12.8336 10.6562 14.6667 8.84054 14.6667 6.67188C14.6667 4.50321 12.8336 2.6875 10.5 2.6875ZM4.45836 6.67188C4.45836 3.40399 7.19573 0.8125 10.5 0.8125C13.8043 0.8125 16.5417 3.40399 16.5417 6.67188C16.5417 9.93976 13.8043 12.5312 10.5 12.5312C7.19573 12.5312 4.45836 9.93976 4.45836 6.67188ZM21.7507 9.56233C22.2685 9.56233 22.6882 9.98206 22.6882 10.4998V12.0623H24.2507C24.7685 12.0623 25.1882 12.4821 25.1882 12.9998C25.1882 13.5176 24.7685 13.9373 24.2507 13.9373H22.6882V15.4998C22.6882 16.0176 22.2685 16.4373 21.7507 16.4373C21.2329 16.4373 20.8132 16.0176 20.8132 15.4998V13.9373H19.2507C18.7329 13.9373 18.3132 13.5176 18.3132 12.9998C18.3132 12.4821 18.7329 12.0623 19.2507 12.0623H20.8132V10.4998C20.8132 9.98206 21.2329 9.56233 21.7507 9.56233ZM13.8327 16.7105C11.6248 16.3465 9.37516 16.3465 7.16728 16.7105L6.90756 16.7533C4.49852 17.1505 2.6875 19.3097 2.6875 21.8893C2.6875 22.7043 3.31936 23.3125 4.03516 23.3125H16.9648C17.6806 23.3125 18.3125 22.7043 18.3125 21.8893C18.3125 19.3097 16.5015 17.1505 14.0924 16.7533L13.8327 16.7105ZM6.86227 14.8605C9.27213 14.4632 11.7279 14.4632 14.1377 14.8605L14.3975 14.9033C17.7552 15.4569 20.1875 18.4363 20.1875 21.8893C20.1875 23.6819 18.7732 25.1875 16.9648 25.1875H4.03516C2.22684 25.1875 0.8125 23.6819 0.8125 21.8893C0.8125 18.4363 3.24479 15.4569 6.60254 14.9033L6.86227 14.8605Z"/>
</svg>
