<svg width="16" height="16" viewBox="0 0 16 16" fill="currentColor" xmlns="http://www.w3.org/2000/svg">
<path fill-rule="evenodd" clip-rule="evenodd" d="M8 0.25C8.55228 0.25 9 0.697715 9 1.25V7.83579L11.0429 5.79289C11.4334 5.40237 12.0666 5.40237 12.4571 5.79289C12.8476 6.18342 12.8476 6.81658 12.4571 7.20711L8.70711 10.9571C8.51957 11.1446 8.26522 11.25 8 11.25C7.73478 11.25 7.48043 11.1446 7.29289 10.9571L3.54289 7.20711C3.15237 6.81658 3.15237 6.18342 3.54289 5.79289C3.93342 5.40237 4.56658 5.40237 4.95711 5.79289L7 7.83579L7 1.25C7 0.697715 7.44772 0.25 8 0.25ZM1.25 9.25C1.80228 9.25 2.25 9.69771 2.25 10.25V13.25C2.25 13.3826 2.30268 13.5098 2.39645 13.6036C2.49022 13.6973 2.61739 13.75 2.75 13.75H13.25C13.3826 13.75 13.5098 13.6973 13.6036 13.6036C13.6973 13.5098 13.75 13.3826 13.75 13.25V10.25C13.75 9.69771 14.1977 9.25 14.75 9.25C15.3023 9.25 15.75 9.69771 15.75 10.25V13.25C15.75 13.913 15.4866 14.5489 15.0178 15.0178C14.5489 15.4866 13.913 15.75 13.25 15.75H2.75C2.08696 15.75 1.45107 15.4866 0.982233 15.0178C0.513392 14.5489 0.25 13.913 0.25 13.25V10.25C0.25 9.69771 0.697715 9.25 1.25 9.25Z" />
</svg>
