<svg width="15" height="17" viewBox="0 0 15 17" fill="none" xmlns="http://www.w3.org/2000/svg">
<path fill-rule="evenodd" clip-rule="evenodd" d="M8.29078 1.54021C8.87678 0.95421 9.67156 0.625 10.5003 0.625C12.226 0.625 13.625 2.02398 13.625 3.74971C13.625 4.57844 13.2958 5.37322 12.7098 5.95922L9.28257 9.38644C7.68048 10.9885 5.6731 12.1251 3.47505 12.6746L2.81265 12.8402L2.60043 11.9913L2.81264 12.8402C1.96541 13.052 1.19799 12.2846 1.4098 11.4374L1.5754 10.7749C2.12491 8.5769 3.26147 6.56952 4.86356 4.96743L8.29078 1.54021ZM10.5003 2.375C10.1357 2.375 9.78603 2.51984 9.52822 2.77764L9.05313 3.25274C9.02182 3.60571 9.19998 4.1099 9.67004 4.57996C10.1401 5.05002 10.6443 5.22819 10.9973 5.19688L11.4724 4.72178C11.7302 4.46397 11.875 4.11431 11.875 3.74971C11.875 2.99048 11.2595 2.375 10.5003 2.375ZM9.56659 6.62755C9.13245 6.41842 8.74374 6.12854 8.4326 5.8174C8.12146 5.50626 7.83158 5.11755 7.62245 4.68341L6.101 6.20487C4.79715 7.50871 3.85183 9.12469 3.35361 10.8964C5.12531 10.3982 6.74129 9.45285 8.04514 8.149L9.56659 6.62755ZM0.5 15.5C0.5 15.0168 0.891751 14.625 1.375 14.625H13.625C14.1082 14.625 14.5 15.0168 14.5 15.5C14.5 15.9833 14.1082 16.375 13.625 16.375H1.375C0.891751 16.375 0.5 15.9833 0.5 15.5Z" fill="#8A8B9D"/>
</svg>
