<svg width="26" height="26" viewBox="0 0 26 26" fill="currentColor" xmlns="http://www.w3.org/2000/svg">
<path fill-rule="evenodd" clip-rule="evenodd" d="M17.8789 3.02785C15.9442 2.57405 13.9308 2.57405 11.9962 3.02785C10.7185 3.32755 9.58236 3.98011 8.6946 4.87875C10.5984 4.56922 12.5478 4.63544 14.432 5.07742C17.6526 5.83284 20.1672 8.34745 20.9226 11.568C21.3646 13.4522 21.4308 15.4016 21.1212 17.3054C22.0199 16.4176 22.6725 15.2815 22.9721 14.0038C23.426 12.0692 23.426 10.0558 22.9721 8.12114C22.3793 5.59393 20.4061 3.62066 17.8789 3.02785ZM11.568 1.2024C13.7842 0.682533 16.0908 0.682532 18.3071 1.2024C21.5276 1.95783 24.0422 4.47244 24.7976 7.69295C25.3175 9.90923 25.3175 12.2158 24.7976 14.432C24.2002 16.9787 22.503 19.0836 20.2268 20.2267C19.0837 22.5031 16.9785 24.2003 14.432 24.7976C12.2158 25.3175 9.90923 25.3175 7.69295 24.7976C4.47244 24.0422 1.95783 21.5276 1.2024 18.3071C0.682532 16.0908 0.682532 13.7842 1.2024 11.568C1.79973 9.02146 3.49693 6.91632 5.77331 5.77323C6.91638 3.49698 9.02133 1.79976 11.568 1.2024ZM7.83181 6.97741C5.44406 7.64841 3.59784 9.56622 3.02786 11.9961C2.57405 13.9308 2.57405 15.9442 3.02786 17.8789C3.62066 20.4061 5.59393 22.3793 8.12114 22.9721C10.0558 23.426 12.0692 23.426 14.0038 22.9721C16.3336 22.4257 18.1926 20.706 18.9333 18.4606C18.9961 18.2704 19.0508 18.0763 19.0971 17.8789C19.5509 15.9442 19.5509 13.9308 19.0971 11.9962C18.5043 9.46894 16.5311 7.49567 14.0039 6.90287C12.0692 6.44906 10.0558 6.44906 8.12114 6.90287C8.02386 6.92569 7.9274 6.95055 7.83181 6.97741ZM6.59495 12.48C6.88216 12.0492 7.46422 11.9327 7.89503 12.22L10.2583 13.7955C10.7831 14.1453 11.4669 14.1453 11.9917 13.7955L14.355 12.22C14.7858 11.9327 15.3678 12.0492 15.655 12.48C15.9423 12.9108 15.8258 13.4928 15.395 13.78L13.0318 15.3555C11.8771 16.1253 10.3729 16.1253 9.21822 15.3555L6.85497 13.78C6.42416 13.4928 6.30775 12.9108 6.59495 12.48Z"/>
</svg>
