<svg width="26" height="26" viewBox="0 0 26 26" fill="currentColor" xmlns="http://www.w3.org/2000/svg">
<path fill-rule="evenodd" clip-rule="evenodd" d="M16.6917 3.09161C14.26 2.5528 11.74 2.5528 9.30835 3.09161L8.74101 3.21732C7.04545 3.59304 5.54878 4.48315 4.42298 5.72003L11.1481 10.5247C12.2559 11.3162 13.7441 11.3162 14.8519 10.5247L21.577 5.72003C20.4512 4.48314 18.9546 3.59303 17.259 3.21732L16.6917 3.09161ZM22.6735 7.24099L15.9419 12.0504C14.1821 13.3077 11.8179 13.3077 10.0581 12.0504L3.32645 7.24099C2.97133 7.87475 2.69681 8.56116 2.51661 9.28687C1.91113 11.7252 1.91113 14.2748 2.51661 16.7131C3.2717 19.754 5.68283 22.105 8.74101 22.7827L9.30835 22.9084C11.74 23.4472 14.26 23.4472 16.6917 22.9084L17.259 22.7827C20.3172 22.105 22.7283 19.754 23.4834 16.7131C24.0889 14.2748 24.0889 11.7253 23.4834 9.28687C23.3032 8.56117 23.0287 7.87475 22.6735 7.24099ZM8.90272 1.26101C11.6015 0.662996 14.3985 0.662996 17.0973 1.26101L17.6646 1.38672C21.4178 2.21837 24.3766 5.1036 25.3031 8.83501C25.9823 11.5701 25.9823 14.4299 25.3031 17.165C24.3766 20.8964 21.4178 23.7816 17.6646 24.6133L17.0973 24.739C14.3985 25.337 11.6015 25.337 8.90272 24.739L8.33538 24.6133C4.5822 23.7816 1.62343 20.8964 0.696872 17.165C0.0177093 14.4299 0.0177093 11.5701 0.696872 8.835C1.62343 5.1036 4.5822 2.21837 8.33538 1.38673L8.90272 1.26101Z"/>
</svg>
