<svg width="17" height="10" viewBox="0 0 17 10" fill="none" xmlns="http://www.w3.org/2000/svg">
<path fill-rule="evenodd" clip-rule="evenodd" d="M16.0299 4.75211C16.1138 4.90657 16.1138 5.0934 16.0299 5.24786C14.4925 8.07838 11.4939 10 8.04639 10C4.59885 10 1.60028 8.07838 0.0629119 5.24786C-0.0209706 5.0934 -0.0209706 4.90657 0.0629119 4.75211C1.60025 1.92162 4.5989 0 8.04642 0C11.4939 0 14.4926 1.92159 16.0299 4.75211ZM4.21076 5.00012C4.21076 7.1183 5.92788 8.83544 8.04608 8.83544C10.1643 8.83544 11.8814 7.11832 11.8814 5.00012C11.8814 2.88192 10.1643 1.16477 8.04608 1.16477C5.92788 1.16477 4.21076 2.88194 4.21076 5.00012Z" fill="#8A8B9D"/>
</svg>
