<svg width="26" height="26" viewBox="0 0 26 26" fill="currentColor" xmlns="http://www.w3.org/2000/svg">
<path fill-rule="evenodd" clip-rule="evenodd" d="M16.6019 3.09605C14.2329 2.55132 11.7672 2.55132 9.39813 3.09605C6.26536 3.81639 3.83248 6.21028 3.10286 9.2594C2.54905 11.5738 2.54905 13.9821 3.10286 16.2965C3.83248 19.3456 6.26536 21.7395 9.39813 22.4598C11.1278 22.8576 12.9091 22.9649 14.6666 22.7818C14.6753 21.6663 14.706 20.7193 14.8147 19.9266C14.9723 18.7779 15.3092 17.8149 16.087 17.0525C16.8622 16.2926 17.8369 15.9658 18.9998 15.8125C20.0594 15.6728 21.3917 15.6649 23.0342 15.6645C23.4464 13.546 23.4007 11.3638 22.8971 9.2594C22.1675 6.21029 19.7346 3.81639 16.6019 3.09605ZM22.4914 17.5403C21.0992 17.5439 20.0623 17.5637 19.2447 17.6714C18.283 17.7982 17.7669 18.0313 17.3995 18.3915C17.0347 18.7491 16.8004 19.2475 16.6723 20.1814C16.5879 20.7965 16.5566 21.5394 16.545 22.4728C16.564 22.4685 16.5829 22.4642 16.6019 22.4598C19.2944 21.8407 21.4699 19.9853 22.4914 17.5403ZM16.5273 24.3936C16.6926 24.3605 16.8575 24.325 17.022 24.2871C20.8328 23.4109 23.8216 20.4902 24.7207 16.7328C25.3431 14.1316 25.3431 11.4243 24.7207 8.82305C23.8216 5.06566 20.8328 2.14498 17.022 1.26873C14.3765 0.660423 11.6235 0.660423 8.97796 1.26873C5.16717 2.14498 2.17845 5.06565 1.27934 8.82304C0.656887 11.4243 0.656887 14.1316 1.27934 16.7328C2.17845 20.4902 5.16717 23.4109 8.97796 24.2871C10.8751 24.7234 12.8276 24.8468 14.7561 24.6573C14.9076 24.9711 15.2289 25.1875 15.6007 25.1875C16.0696 25.1875 16.4581 24.8432 16.5273 24.3936ZM8.3125 9.25C8.3125 8.73223 8.73223 8.3125 9.25 8.3125H13C13.5178 8.3125 13.9375 8.73223 13.9375 9.25C13.9375 9.76777 13.5178 10.1875 13 10.1875H9.25C8.73223 10.1875 8.3125 9.76777 8.3125 9.25ZM8.3125 13C8.3125 12.4822 8.73223 12.0625 9.25 12.0625H15.5C16.0178 12.0625 16.4375 12.4822 16.4375 13C16.4375 13.5178 16.0178 13.9375 15.5 13.9375H9.25C8.73223 13.9375 8.3125 13.5178 8.3125 13Z" />
</svg>
