<svg width="22" height="26" viewBox="0 0 22 26" fill="currentColor" xmlns="http://www.w3.org/2000/svg">
<path fill-rule="evenodd" clip-rule="evenodd" d="M11 2.6875C6.01399 2.6875 1.9375 6.82385 1.9375 11.9694C1.9375 14.564 2.97529 17.4374 4.67343 19.6564C6.37598 21.8811 8.62938 23.3125 11 23.3125C13.3706 23.3125 15.624 21.8811 17.3266 19.6564C19.0247 17.4374 20.0625 14.564 20.0625 11.9694C20.0625 6.82385 15.986 2.6875 11 2.6875ZM0.0625 11.9694C0.0625 5.82688 4.94031 0.8125 11 0.8125C17.0597 0.8125 21.9375 5.82688 21.9375 11.9694C21.9375 15.0187 20.7367 18.2856 18.8156 20.7959C16.8988 23.3005 14.1522 25.1875 11 25.1875C7.84777 25.1875 5.10117 23.3005 3.18443 20.7959C1.26329 18.2856 0.0625 15.0187 0.0625 11.9694ZM6.9375 11.125C6.9375 8.88134 8.75634 7.0625 11 7.0625C13.2437 7.0625 15.0625 8.88134 15.0625 11.125C15.0625 13.3687 13.2437 15.1875 11 15.1875C8.75634 15.1875 6.9375 13.3687 6.9375 11.125ZM11 8.9375C9.79188 8.9375 8.8125 9.91688 8.8125 11.125C8.8125 12.3331 9.79188 13.3125 11 13.3125C12.2081 13.3125 13.1875 12.3331 13.1875 11.125C13.1875 9.91688 12.2081 8.9375 11 8.9375Z"/>
</svg>
