<svg width="26" height="18" viewBox="0 0 26 18" fill="currentColor" xmlns="http://www.w3.org/2000/svg">
<path fill-rule="evenodd" clip-rule="evenodd" d="M2.63232 4.50002C2.63232 2.08781 4.58781 0.132324 7.00002 0.132324C7.47923 0.132324 7.86771 0.520803 7.86771 1.00002C7.86771 1.47923 7.47923 1.86771 7.00002 1.86771C5.54623 1.86771 4.36771 3.04623 4.36771 4.50002C4.36771 5.9538 5.54623 7.13232 7.00002 7.13232C7.47923 7.13232 7.86771 7.5208 7.86771 8.00002C7.86771 8.47923 7.47923 8.86771 7.00002 8.86771C4.58781 8.86771 2.63232 6.91223 2.63232 4.50002ZM13 1.86771C11.5462 1.86771 10.3677 3.04623 10.3677 4.50002C10.3677 5.9538 11.5462 7.13232 13 7.13232C14.4538 7.13232 15.6323 5.9538 15.6323 4.50002C15.6323 3.04623 14.4538 1.86771 13 1.86771ZM8.63232 4.50002C8.63232 2.08781 10.5878 0.132324 13 0.132324C15.4122 0.132324 17.3677 2.08781 17.3677 4.50002C17.3677 6.91223 15.4122 8.86771 13 8.86771C10.5878 8.86771 8.63232 6.91223 8.63232 4.50002ZM18.1323 1.00002C18.1323 0.520803 18.5208 0.132324 19 0.132324C21.4122 0.132324 23.3677 2.08781 23.3677 4.50002C23.3677 6.91223 21.4122 8.86771 19 8.86771C18.5208 8.86771 18.1323 8.47923 18.1323 8.00002C18.1323 7.5208 18.5208 7.13232 19 7.13232C20.4538 7.13232 21.6323 5.9538 21.6323 4.50002C21.6323 3.04623 20.4538 1.86771 19 1.86771C18.5208 1.86771 18.1323 1.47923 18.1323 1.00002ZM15.2531 12.2383C13.7605 12.0001 12.2395 12.0001 10.7469 12.2383L10.5688 12.2667C9.01271 12.515 7.86771 13.8573 7.86771 15.433C7.86771 15.8192 8.18078 16.1323 8.56698 16.1323H17.433C17.8192 16.1323 18.1323 15.8192 18.1323 15.433C18.1323 13.8573 16.9873 12.515 15.4312 12.2667L15.2531 12.2383ZM10.4734 10.5246C12.1472 10.2574 13.8528 10.2574 15.5266 10.5246L15.7047 10.553C18.103 10.9358 19.8677 13.0044 19.8677 15.433C19.8677 16.7777 18.7777 17.8677 17.433 17.8677H8.56698C7.22236 17.8677 6.13232 16.7777 6.13232 15.433C6.13232 13.0044 7.89702 10.9358 10.2953 10.553L10.4734 10.5246ZM4.79072 12.2491C4.71639 12.2491 4.64204 12.255 4.5688 12.2667C3.01271 12.515 1.86771 13.8573 1.86771 15.433C1.86771 15.8192 2.18079 16.1323 2.56698 16.1323H4.61015C5.08936 16.1323 5.47784 16.5208 5.47784 17C5.47784 17.4792 5.08936 17.8677 4.61015 17.8677H2.56698C1.22236 17.8677 0.132324 16.7777 0.132324 15.433C0.132324 13.0044 1.89702 10.9358 4.2953 10.553C4.45916 10.5268 4.62496 10.5137 4.79072 10.5137H5.75885C6.23806 10.5137 6.62654 10.9022 6.62654 11.3814C6.62654 11.8606 6.23806 12.2491 5.75885 12.2491H4.79072ZM19.3735 11.3814C19.3735 10.9022 19.762 10.5137 20.2412 10.5137H21.2093C21.3751 10.5137 21.5409 10.5268 21.7047 10.553C24.103 10.9358 25.8677 13.0044 25.8677 15.433C25.8677 16.7777 24.7777 17.8677 23.433 17.8677H21.3899C20.9107 17.8677 20.5222 17.4792 20.5222 17C20.5222 16.5208 20.9107 16.1323 21.3899 16.1323H23.433C23.8192 16.1323 24.1323 15.8192 24.1323 15.433C24.1323 13.8573 22.9873 12.515 21.4312 12.2667C21.358 12.255 21.2836 12.2491 21.2093 12.2491H20.2412C19.762 12.2491 19.3735 11.8606 19.3735 11.3814Z"/>
</svg>
