<svg width="26" height="26" viewBox="0 0 26 26" fill="currentColor" xmlns="http://www.w3.org/2000/svg">
<path fill-rule="evenodd" clip-rule="evenodd" d="M18.3148 3.002C16.5271 2.58266 14.6666 2.58267 12.8788 3.00201C10.5551 3.54708 8.74069 5.36149 8.19561 7.68524C8.03836 8.35563 7.94007 9.03626 7.90076 9.71944C7.83524 10.8581 7.93352 12.0038 8.19561 13.1212C8.74069 15.4449 10.5551 17.2593 12.8788 17.8044C14.0045 18.0684 15.1589 18.1662 16.3059 18.0978C16.9806 18.0575 17.6527 17.9597 18.3148 17.8044C20.6385 17.2593 22.4529 15.4449 22.998 13.1212C23.4173 11.3334 23.4173 9.47295 22.998 7.68524C22.4529 5.36149 20.6385 3.54708 18.3148 3.002ZM17.1145 19.91C17.6611 19.8495 18.2049 19.7561 18.743 19.6298C21.76 18.9221 24.1157 16.5664 24.8234 13.5493C25.3088 11.48 25.3088 9.3264 24.8234 7.25705C24.1157 4.24 21.76 1.88426 18.743 1.17655C16.6736 0.691149 14.52 0.691149 12.4507 1.17655C9.4336 1.88426 7.07786 4.23999 6.37016 7.25704C6.24394 7.79514 6.15054 8.33893 6.08996 8.88546C3.62313 9.59732 1.71868 11.5879 1.12809 14.1057C0.707305 15.8995 0.707305 17.7664 1.12809 19.5603C1.74631 22.1958 3.80418 24.2537 6.43974 24.8719C8.23359 25.2927 10.1005 25.2927 11.8943 24.8719C14.4121 24.2813 16.4027 22.3769 17.1145 19.91ZM15.1019 19.985C14.2116 19.953 13.3236 19.8346 12.4507 19.6298C9.4336 18.9221 7.07786 16.5664 6.37016 13.5494C6.16539 12.6764 6.047 11.7884 6.015 10.8981C4.48965 11.5454 3.33997 12.8865 2.95354 14.5339C2.59882 16.0461 2.59882 17.6199 2.95354 19.1321C3.40913 21.0743 4.92567 22.5909 6.86793 23.0465C8.38014 23.4012 9.95391 23.4012 11.4661 23.0465C13.1135 22.66 14.4546 21.5103 15.1019 19.985Z"/>
</svg>
