<svg width="24" height="24" viewBox="0 0 24 24" fill="currentColor" xmlns="http://www.w3.org/2000/svg">
<path fill-rule="evenodd" clip-rule="evenodd" d="M4.55656 0.817174C4.96414 0.689908 5.38699 0.625 5.81271 0.625C7.85898 0.625 9.37501 2.42687 9.375 4.46458L9.375 9.03543C9.37501 11.0731 7.85898 12.875 5.81271 12.875C5.38699 12.875 4.96413 12.8101 4.55656 12.6828L4.24501 12.5855C4.13863 12.5523 4.03397 12.5155 3.93113 12.4752C5.5543 15.7716 8.22844 18.4457 11.5248 20.0689C11.4845 19.966 11.4477 19.8614 11.4145 19.755L11.3172 19.4434L12.1524 19.1826L11.3172 19.4434C11.1899 19.0359 11.125 18.613 11.125 18.1873C11.125 16.141 12.9269 14.625 14.9646 14.625H19.5354C21.5731 14.625 23.375 16.141 23.375 18.1873C23.375 18.613 23.3101 19.0359 23.1828 19.4434L23.0855 19.755C22.5189 21.5698 20.8979 22.8841 18.959 23.2258C17.8301 23.4247 16.6699 23.4247 15.541 23.2258C15.4966 23.218 15.4524 23.2096 15.4084 23.2008C8.00976 21.7774 2.22261 15.9902 0.799189 8.59165C0.790352 8.5476 0.782019 8.50337 0.774196 8.45898C0.575267 7.33006 0.575268 6.16994 0.774197 5.04102C1.11586 3.10208 2.43016 1.48114 4.24501 0.914458C4.24501 0.914458 4.24501 0.914457 4.24501 0.914457L4.55656 0.817175L4.55656 0.817174ZM2.51672 8.25605C2.51003 8.22126 2.50346 8.18642 2.49699 8.15154C2.33412 7.22472 2.33434 6.27147 2.49764 5.34472C2.73856 3.97756 3.64387 2.93549 4.76661 2.58492L4.76662 2.58491L5.07816 2.48763C5.07816 2.48763 5.07816 2.48763 5.07817 2.48763C5.31826 2.41266 5.56531 2.375 5.81271 2.375C6.73475 2.375 7.62501 3.22771 7.625 4.46457L7.625 9.03543C7.62501 10.2723 6.73475 11.125 5.81271 11.125C5.56531 11.125 5.31826 11.0873 5.07816 11.0124L4.76661 10.9151C3.67161 10.5732 2.78344 9.57353 2.51672 8.25605ZM15.8485 21.503C16.7753 21.6659 17.7285 21.6657 18.6553 21.5024C20.0224 21.2614 21.0645 20.3561 21.4151 19.2334L21.5124 18.9218C21.5873 18.6817 21.625 18.4347 21.625 18.1873C21.625 17.2652 20.7723 16.375 19.5354 16.375H14.9646C13.7277 16.375 12.875 17.2652 12.875 18.1873C12.875 18.4347 12.9127 18.6817 12.9876 18.9218L13.0849 19.2334L12.2497 19.4942L13.0849 19.2334C13.4268 20.3284 14.4265 21.2166 15.744 21.4833C15.7788 21.49 15.8136 21.4965 15.8485 21.503ZM19.779 4.22096C18.0896 2.53149 15.6483 1.99721 13.4064 2.63598C12.9417 2.7684 12.4576 2.49899 12.3252 2.03424C12.1927 1.56949 12.4621 1.08538 12.9269 0.952964C15.7313 0.153903 18.8436 0.810623 21.0165 2.98353C23.1894 5.15643 23.8461 8.26866 23.047 11.0731C22.9146 11.5379 22.4305 11.8073 21.9658 11.6748C21.501 11.5424 21.2316 11.0583 21.364 10.5936C22.0028 8.3517 21.4685 5.91043 19.779 4.22096ZM17.5193 6.48068C16.9355 5.8969 16.1877 5.69862 15.5973 5.81622C15.1234 5.91062 14.6626 5.60294 14.5682 5.129C14.4738 4.65506 14.7815 4.19433 15.2555 4.09993C16.4674 3.85854 17.7956 4.28207 18.7568 5.24325C19.7179 6.20442 20.1415 7.53257 19.9001 8.74454C19.8057 9.21848 19.3449 9.52616 18.871 9.43177C18.3971 9.33737 18.0894 8.87664 18.1838 8.4027C18.3014 7.81229 18.1031 7.06446 17.5193 6.48068Z"/>
</svg>
