<svg width="13" height="12" viewBox="0 0 13 12" fill="none" xmlns="http://www.w3.org/2000/svg">
<path fill-rule="evenodd" clip-rule="evenodd" d="M6.50034 0.333496C7.05262 0.333496 7.50034 0.781211 7.50034 1.3335V5.00016H11.1667C11.719 5.00016 12.1667 5.44788 12.1667 6.00016C12.1667 6.55245 11.719 7.00016 11.1667 7.00016H7.50034V10.6668C7.50034 11.2191 7.05262 11.6668 6.50034 11.6668C5.94805 11.6668 5.50034 11.2191 5.50034 10.6668V7.00016H1.83334C1.28106 7.00016 0.833344 6.55245 0.833344 6.00016C0.833344 5.44788 1.28106 5.00016 1.83334 5.00016H5.50034V1.3335C5.50034 0.781211 5.94805 0.333496 6.50034 0.333496Z" fill="#3E7EFF"/>
</svg>
