<svg width="16" height="16" viewBox="0 0 16 16" fill="none" xmlns="http://www.w3.org/2000/svg">
<path fill-rule="evenodd" clip-rule="evenodd" d="M9.34896 1.34824C10.0521 0.645048 11.0059 0.25 12.0003 0.25C14.0712 0.25 15.75 1.92876 15.75 3.99962C15.75 4.99408 15.3549 5.94781 14.6517 6.651L10.0821 11.2206C7.99936 13.3033 5.38976 14.7809 2.5323 15.4952L1.64909 15.716C0.824599 15.9222 0.077784 15.1753 0.283905 14.3509L0.504707 13.4677C1.21907 10.6102 2.69661 8.00059 4.77933 5.91787L9.34896 1.34824ZM12.0003 1.75C11.4037 1.75 10.8315 1.98701 10.4096 2.4089L9.67859 3.13992C9.54317 3.80179 9.87032 4.67286 10.5987 5.40124C11.3271 6.12963 12.1982 6.45678 12.86 6.32136L13.5911 5.59034C14.0129 5.16845 14.25 4.59625 14.25 3.99962C14.25 2.75719 13.2428 1.75 12.0003 1.75ZM11.4964 7.68499C10.7512 7.44896 10.0663 6.99017 9.53805 6.4619C9.00978 5.93364 8.55099 5.24872 8.31496 4.50355L5.83999 6.97853C3.9495 8.86901 2.60835 11.2377 1.95992 13.8315L1.8904 14.1096L2.16849 14.04C4.76221 13.3916 7.13094 12.0504 9.02143 10.16L11.4964 7.68499Z" fill="white"/>
</svg>
