<svg width="14" height="16" viewBox="0 0 14 16" fill="currentColor" xmlns="http://www.w3.org/2000/svg">
<path d="M12.9851 3.11976C13.2661 3.11976 13.5 3.35304 13.5 3.64987V3.92431C13.5 4.21392 13.2661 4.45441 12.9851 4.45441H1.01556C0.733899 4.45441 0.5 4.21392 0.5 3.92431V3.64987C0.5 3.35304 0.733899 3.11976 1.01556 3.11976H3.12135C3.54911 3.11976 3.92139 2.81571 4.01761 2.38671L4.12789 1.89416C4.29928 1.22322 4.8633 0.777618 5.50881 0.777618H8.49119C9.12967 0.777618 9.70002 1.22323 9.86508 1.85877L9.98309 2.38599C10.0786 2.81571 10.4509 3.11976 10.8793 3.11976H12.9851Z" fill="currentColor"/>
<path d="M11.9163 13.1525C12.1361 11.1036 12.5211 6.23586 12.5211 6.18675C12.5351 6.03798 12.4866 5.89714 12.3904 5.78376C12.2872 5.67759 12.1565 5.61476 12.0125 5.61476H1.99491C1.85022 5.61476 1.71255 5.67759 1.61702 5.78376C1.52009 5.89714 1.47233 6.03798 1.47935 6.18675C1.48064 6.19578 1.49445 6.36724 1.51754 6.6539C1.62012 7.92735 1.90582 11.4742 2.09044 13.1525C2.22108 14.3889 3.03235 15.166 4.20747 15.1942C5.11426 15.2152 6.04846 15.2224 7.00372 15.2224C7.90349 15.2224 8.81731 15.2152 9.7522 15.1942C10.9681 15.1733 11.7786 14.4099 11.9163 13.1525Z" fill="currentColor"/>
</svg>
