<svg width="21" height="20" viewBox="0 0 21 20" fill="none" xmlns="http://www.w3.org/2000/svg">
<path fill-rule="evenodd" clip-rule="evenodd" d="M10.5 1.75C9.53414 1.75 8.56829 1.86102 7.62171 2.08306C5.12161 2.6695 3.1695 4.6216 2.58306 7.12171C2.13898 9.01488 2.13898 10.9851 2.58306 12.8783C3.1695 15.3784 5.12161 17.3305 7.62171 17.9169C9.51488 18.361 11.4851 18.361 13.3783 17.9169C15.8784 17.3305 17.8305 15.3784 18.4169 12.8783C18.639 11.9317 18.75 10.9658 18.75 9.99997C18.75 9.58576 19.0858 9.24997 19.5 9.24997C19.9142 9.24997 20.25 9.58576 20.25 9.99997C20.25 11.0808 20.1258 12.1616 19.8773 13.2208C19.1608 16.2756 16.7756 18.6608 13.7208 19.3773C11.6024 19.8742 9.39764 19.8742 7.27916 19.3773C4.22441 18.6608 1.83924 16.2756 1.1227 13.2209C0.625768 11.1024 0.625768 8.89763 1.1227 6.77915C1.83924 3.72441 4.22441 1.33924 7.27916 0.622696C8.33839 0.374233 9.4192 0.25 10.5 0.25C10.9142 0.25 11.25 0.585786 11.25 1C11.25 1.41421 10.9142 1.75 10.5 1.75Z" fill="#B0B1BC"/>
<path fill-rule="evenodd" clip-rule="evenodd" d="M16.9999 2.74986C16.0334 2.74986 15.2499 3.53336 15.2499 4.49986C15.2499 5.46636 16.0334 6.24986 16.9999 6.24986C17.9664 6.24986 18.7499 5.46636 18.7499 4.49986C18.7499 3.53336 17.9664 2.74986 16.9999 2.74986ZM13.7499 4.49986C13.7499 2.70493 15.2049 1.24986 16.9999 1.24986C18.7948 1.24986 20.2499 2.70493 20.2499 4.49986C20.2499 6.29479 18.7948 7.74986 16.9999 7.74986C15.2049 7.74986 13.7499 6.29479 13.7499 4.49986Z" fill="#B0B1BC"/>
</svg>
