<svg width="20" height="20" viewBox="0 0 20 20" stroke="currentColor" xmlns="http://www.w3.org/2000/svg">
<path fill-rule="evenodd" clip-rule="evenodd" d="M5.08333 8C5.49755 8 5.83333 8.33579 5.83333 8.75V12.8333C5.83333 13.2475 5.49755 13.5833 5.08333 13.5833C4.66912 13.5833 4.33333 13.2475 4.33333 12.8333V8.75C4.33333 8.33579 4.66912 8 5.08333 8Z" fill="#B0B1BC"/>
<path fill-rule="evenodd" clip-rule="evenodd" d="M10.6884 1.87181C10.0737 1.7094 9.4263 1.7094 8.81157 1.87181C7.7815 2.14395 6.97588 2.86716 6.58398 3.78606C8.67723 3.40762 10.8228 3.40762 12.916 3.78605C12.5241 2.86716 11.7185 2.14395 10.6884 1.87181ZM14.5827 4.11909C14.2249 2.34983 12.879 0.899098 11.0716 0.421569C10.2057 0.192811 9.29427 0.19281 8.42842 0.421568C6.62097 0.899098 5.2751 2.34983 4.91725 4.11908C2.79441 4.6698 1.10481 6.29119 0.501762 8.40439L0.408768 8.73025C-0.138871 10.6493 -0.134802 12.6917 0.412291 14.6088C1.1033 17.0303 3.11966 18.874 5.61512 19.3551C8.34589 19.8816 11.1541 19.8816 13.8849 19.3551C16.3803 18.874 18.3967 17.0303 19.0877 14.6088C19.6348 12.6917 19.6389 10.6493 19.0912 8.73026L18.9982 8.40439C18.3952 6.29119 16.7056 4.6698 14.5827 4.11909ZM12.835 5.29685C10.7977 4.90402 8.70235 4.90402 6.66496 5.29685L5.5914 5.50384C3.9369 5.82284 2.59275 6.97949 2.03861 8.52259C7.02669 10.2692 12.4733 10.2692 17.4614 8.52259C16.9073 6.97949 15.5631 5.82284 13.9086 5.50384L12.835 5.29685ZM17.8452 9.97721C12.6041 11.7843 6.89595 11.7843 1.65485 9.97721C1.39496 11.3749 1.46262 12.8233 1.85471 14.1972C2.38939 16.0709 3.95493 17.5074 5.8991 17.8822C8.44228 18.3726 11.0577 18.3726 13.6009 17.8822C15.5451 17.5074 17.1106 16.0708 17.6453 14.1972C18.0374 12.8233 18.105 11.3749 17.8452 9.97721Z" fill="#B0B1BC"/>
<path fill-rule="evenodd" clip-rule="evenodd" d="M13.7503 7.75C14.1645 7.75 14.5003 8.08579 14.5003 8.5V12C14.5003 12.4142 14.1645 12.75 13.7503 12.75C13.3361 12.75 13.0003 12.4142 13.0003 12V8.5C13.0003 8.08579 13.3361 7.75 13.7503 7.75Z" fill="#B0B1BC"/>
</svg>
