<svg width="22" height="22" viewBox="0 0 22 22" fill="none" xmlns="http://www.w3.org/2000/svg">
<path fill-rule="evenodd" clip-rule="evenodd" d="M16.2191 4.66395C15.8292 2.76464 14.3827 1.20226 12.4303 0.685871C11.4933 0.438043 10.5067 0.438043 9.56972 0.68587C7.61732 1.20226 6.17076 2.76463 5.78094 4.66394C3.69596 5.2123 2.00566 6.71674 1.23472 8.69968C2.57955 9.1953 4.08606 9.57152 5.67634 9.82831V9.46707C5.67634 9.00866 6.05268 8.63705 6.51692 8.63705C6.98116 8.63705 7.3575 9.00866 7.3575 9.46707V10.0524C9.74567 10.3059 12.2543 10.3059 14.6425 10.0524V9.46707C14.6425 9.00866 15.0188 8.63705 15.4831 8.63705C15.9473 8.63705 16.3237 9.00866 16.3237 9.46707V9.82831C17.9139 9.57152 19.4204 9.19531 20.7653 8.69968C19.9943 6.71674 18.304 5.2123 16.2191 4.66395ZM11.9953 2.28939C11.3433 2.11693 10.6567 2.11693 10.0047 2.28939C8.92838 2.57406 8.07793 3.32651 7.65348 4.2893C9.8667 3.896 12.1333 3.896 14.3465 4.2893C13.9221 3.32651 13.0716 2.57406 11.9953 2.28939Z" fill="#3E7EFF"/>
<path d="M14.6425 11.7213V13.3405C14.6425 13.7989 15.0188 14.1705 15.4831 14.1705C15.9473 14.1705 16.3237 13.7989 16.3237 13.3405V11.5088C18.0733 11.2418 19.7375 10.8388 21.2295 10.3C21.6416 12.1658 21.5818 14.1144 21.057 15.9557C20.314 18.5621 18.1431 20.5544 15.4467 21.0749C12.51 21.6417 9.48997 21.6417 6.55329 21.0749C3.8569 20.5544 1.68603 18.5621 0.943041 15.9557C0.418157 14.1144 0.358411 12.1658 0.770454 10.3C2.26251 10.8388 3.92675 11.2418 5.67634 11.5088V13.3405C5.67634 13.7989 6.05268 14.1705 6.51692 14.1705C6.98116 14.1705 7.3575 13.7989 7.3575 13.3405V11.7213C9.75149 11.963 12.2485 11.963 14.6425 11.7213Z" fill="#3E7EFF"/>
</svg>
