<svg width="21" height="18" viewBox="0 0 21 18" fill="none" xmlns="http://www.w3.org/2000/svg">
<path fill-rule="evenodd" clip-rule="evenodd" d="M13.0731 0.777669C13.0731 0.35195 13.4182 0.00683594 13.8439 0.00683594C16.2563 0.00683594 18.212 1.96248 18.212 4.37489C18.212 6.7873 16.2563 8.74295 13.8439 8.74295C13.4182 8.74295 13.0731 8.39783 13.0731 7.97211C13.0731 7.54639 13.4182 7.20128 13.8439 7.20128C15.4049 7.20128 16.6703 5.93586 16.6703 4.37489C16.6703 2.81392 15.4049 1.5485 13.8439 1.5485C13.4182 1.5485 13.0731 1.20339 13.0731 0.777669ZM7.67725 1.54872C6.11627 1.54872 4.85086 2.81414 4.85086 4.37511C4.85086 5.93608 6.11627 7.2015 7.67725 7.2015C9.23822 7.2015 10.5036 5.93608 10.5036 4.37511C10.5036 2.81414 9.23822 1.54872 7.67725 1.54872ZM3.30919 4.37511C3.30919 1.9627 5.26484 0.00705302 7.67725 0.00705302C10.0897 0.00705302 12.0453 1.9627 12.0453 4.37511C12.0453 6.78752 10.0897 8.74316 7.67725 8.74316C5.26484 8.74316 3.30919 6.78752 3.30919 4.37511ZM5.09951 10.6865C6.80719 10.4139 8.5473 10.4139 10.255 10.6865L10.438 10.7157C12.8442 11.0997 14.6147 13.1752 14.6147 15.6118C14.6147 16.927 13.5486 17.9932 12.2334 17.9932H3.12107C1.8059 17.9932 0.739746 16.927 0.739746 15.6118C0.739746 13.1752 2.51027 11.0997 4.91646 10.7157L5.09951 10.6865ZM10.012 12.2089C8.46529 11.962 6.8892 11.962 5.34248 12.2089L5.15943 12.2381C3.50141 12.5027 2.28141 13.9328 2.28141 15.6118C2.28141 16.0756 2.65734 16.4515 3.12107 16.4515H12.2334C12.6972 16.4515 13.0731 16.0756 13.0731 15.6118C13.0731 13.9328 11.8531 12.5027 10.1951 12.2381L10.012 12.2089ZM14.3487 11.4475C14.3487 11.0217 14.6938 10.6766 15.1196 10.6766H16.1146C16.2786 10.6766 16.4426 10.6896 16.6047 10.7155C19.0109 11.0995 20.7814 13.175 20.7814 15.6116C20.7814 16.9268 19.7153 17.9929 18.4001 17.9929H16.3002C15.8744 17.9929 15.5293 17.6478 15.5293 17.2221C15.5293 16.7964 15.8744 16.4513 16.3002 16.4513H18.4001C18.8638 16.4513 19.2397 16.0754 19.2397 15.6116C19.2397 13.9326 18.0197 12.5025 16.3617 12.2379C16.2801 12.2248 16.1974 12.2183 16.1146 12.2183H15.1196C14.6938 12.2183 14.3487 11.8732 14.3487 11.4475Z" fill="#B0B1BC"/>
</svg>
