<svg width="21" height="19" viewBox="0 0 21 19" fill="none" xmlns="http://www.w3.org/2000/svg">
<path fill-rule="evenodd" clip-rule="evenodd" d="M13.0623 0.777181C13.0623 0.351461 13.4075 0.00634766 13.8332 0.00634766C16.2456 0.00634766 18.2012 1.96199 18.2012 4.3744C18.2012 6.78681 16.2456 8.74246 13.8332 8.74246C13.4075 8.74246 13.0623 8.39735 13.0623 7.97163C13.0623 7.54591 13.4075 7.20079 13.8332 7.20079C15.3941 7.20079 16.6596 5.93537 16.6596 4.3744C16.6596 2.81343 15.3941 1.54801 13.8332 1.54801C13.4075 1.54801 13.0623 1.2029 13.0623 0.777181ZM7.6665 1.54823C6.10553 1.54823 4.84012 2.81365 4.84012 4.37462C4.84012 5.93559 6.10553 7.20101 7.6665 7.20101C9.22748 7.20101 10.4929 5.93559 10.4929 4.37462C10.4929 2.81365 9.22748 1.54823 7.6665 1.54823ZM3.29845 4.37462C3.29845 1.96221 5.25409 0.00656474 7.6665 0.00656474C10.0789 0.00656474 12.0346 1.96221 12.0346 4.37462C12.0346 6.78703 10.0789 8.74268 7.6665 8.74268C5.25409 8.74268 3.29845 6.78703 3.29845 4.37462ZM5.08877 10.686C6.79645 10.4134 8.53655 10.4134 10.2442 10.686L10.4273 10.7152C12.8335 11.0992 14.604 13.1747 14.604 15.6113C14.604 16.9265 13.5378 17.9927 12.2227 17.9927H3.11033C1.79516 17.9927 0.729004 16.9265 0.729004 15.6113C0.729004 13.1747 2.49953 11.0992 4.90572 10.7152L5.08877 10.686ZM10.0013 12.2084C8.45455 11.9615 6.87846 11.9615 5.33173 12.2084L5.14869 12.2376C3.49067 12.5022 2.27067 13.9323 2.27067 15.6113C2.27067 16.0751 2.6466 16.451 3.11033 16.451H12.2227C12.6864 16.451 13.0623 16.0751 13.0623 15.6113C13.0623 13.9323 11.8423 12.5022 10.1843 12.2376L10.0013 12.2084ZM14.338 11.447C14.338 11.0212 14.6831 10.6761 15.1088 10.6761H16.1038C16.2678 10.6761 16.4319 10.6891 16.5939 10.715C19.0001 11.099 20.7707 13.1745 20.7707 15.6111C20.7707 16.9263 19.7045 17.9925 18.3893 17.9925H16.2894C15.8637 17.9925 15.5186 17.6473 15.5186 17.2216C15.5186 16.7959 15.8637 16.4508 16.2894 16.4508H18.3893C18.8531 16.4508 19.229 16.0749 19.229 15.6111C19.229 13.9321 18.009 12.502 16.351 12.2374C16.2694 12.2244 16.1866 12.2178 16.1038 12.2178H15.1088C14.6831 12.2178 14.338 11.8727 14.338 11.447Z" fill="#3E7EFF"/>
<path d="M1.99984 15.8337C1.99984 13.7759 3.4951 12.0231 5.52721 11.6988L5.71025 11.6696C7.33746 11.4099 8.99555 11.4099 10.6228 11.6696L10.8058 11.6988C12.8379 12.0231 14.3332 13.7759 14.3332 15.8337C14.3332 16.7232 13.6121 17.4442 12.7227 17.4442H3.61033C2.72088 17.4442 1.99984 16.7232 1.99984 15.8337Z" fill="#3E7EFF"/>
<path d="M11.7637 4.59701C11.7637 6.5837 10.1532 8.19423 8.1665 8.19423C6.17981 8.19423 4.56928 6.5837 4.56928 4.59701C4.56928 2.61031 6.17981 0.999783 8.1665 0.999783C10.1532 0.999783 11.7637 2.61031 11.7637 4.59701Z" fill="#3E7EFF"/>
<path fill-rule="evenodd" clip-rule="evenodd" d="M8.1665 1.77062C6.60553 1.77062 5.34012 3.03603 5.34012 4.59701C5.34012 6.15798 6.60553 7.42339 8.1665 7.42339C9.72748 7.42339 10.9929 6.15798 10.9929 4.59701C10.9929 3.03603 9.72748 1.77062 8.1665 1.77062ZM3.79845 4.59701C3.79845 2.18459 5.75409 0.22895 8.1665 0.22895C10.5789 0.22895 12.5346 2.18459 12.5346 4.59701C12.5346 7.00942 10.5789 8.96506 8.1665 8.96506C5.75409 8.96506 3.79845 7.00942 3.79845 4.59701ZM5.58877 10.9084C7.29645 10.6358 9.03655 10.6358 10.7442 10.9084L10.9273 10.9376C13.3335 11.3216 15.104 13.3971 15.104 15.8337C15.104 17.1489 14.0378 18.2151 12.7227 18.2151H3.61033C2.29516 18.2151 1.229 17.1489 1.229 15.8337C1.229 13.3971 2.99953 11.3216 5.40572 10.9376L5.58877 10.9084ZM10.5013 12.4308C8.95455 12.1839 7.37846 12.1839 5.83173 12.4308L5.64869 12.46C3.99067 12.7246 2.77067 14.1547 2.77067 15.8337C2.77067 16.2975 3.1466 16.6734 3.61033 16.6734H12.7227C13.1864 16.6734 13.5623 16.2975 13.5623 15.8337C13.5623 14.1547 12.3423 12.7246 10.6843 12.46L10.5013 12.4308Z" fill="#3E7EFF"/>
</svg>
