<svg width="15" height="18" viewBox="0 0 15 18" fill="none" xmlns="http://www.w3.org/2000/svg">
<path fill-rule="evenodd" clip-rule="evenodd" d="M7.5 0.25C7.91421 0.25 8.25 0.585786 8.25 1V1.18264C8.65467 1.23066 9.05545 1.32055 9.44541 1.45265C11.4027 2.11564 12.889 3.75 13.4087 5.78155L13.9177 7.77137L14.3257 9.6666C14.361 9.8308 14.4048 10.0138 14.451 10.207C14.5476 10.6112 14.6548 11.0598 14.7178 11.473C14.7391 11.6119 14.75 11.754 14.75 11.8981C14.75 13.1858 13.8678 14.3209 12.6041 14.585L12.2856 14.6515C11.7745 14.7583 11.261 14.8478 10.7457 14.92C10.7448 14.9241 10.7438 14.9283 10.7428 14.9324L10.6718 15.2287C10.386 16.4207 9.47336 17.3639 8.28874 17.6546C7.77026 17.7818 7.22974 17.7818 6.71126 17.6546C5.52664 17.3639 4.61404 16.4207 4.32825 15.2287L4.25721 14.9324C4.25622 14.9283 4.25524 14.9241 4.25427 14.92C3.73901 14.8478 3.22545 14.7583 2.71443 14.6515L2.39585 14.585C1.13223 14.3209 0.25 13.1858 0.25 11.8981C0.25 11.754 0.260941 11.612 0.282152 11.473C0.345208 11.0598 0.452423 10.6112 0.549038 10.207C0.595205 10.0138 0.638951 9.8308 0.674303 9.6666L1.08295 7.7685L1.59897 5.81518C2.14285 3.75641 3.68222 2.10581 5.66732 1.44584C6.02092 1.32827 6.38355 1.2446 6.75 1.19506V1C6.75 0.585786 7.08579 0.25 7.5 0.25ZM7.46128 2.64212C7.01486 2.65093 6.56905 2.72677 6.14054 2.86923C4.64447 3.36662 3.46616 4.62001 3.04921 6.19831L2.54205 8.11809L2.1407 9.9823C2.08941 10.2205 2.03683 10.4391 1.98656 10.648C1.89948 11.01 1.81936 11.343 1.76498 11.6993C1.75517 11.7636 1.75 11.83 1.75 11.8981C1.75 12.506 2.16352 13.004 2.70264 13.1167L3.02122 13.1832C3.76018 13.3376 4.50477 13.4534 5.25217 13.5306C6.83313 13.6939 8.42668 13.6845 10.0062 13.5024C10.6668 13.4262 11.325 13.3198 11.9788 13.1832L12.2974 13.1167C12.8365 13.004 13.25 12.506 13.25 11.8981C13.25 11.83 13.2448 11.7636 13.235 11.6993C13.1806 11.3429 13.1005 11.0099 13.0134 10.648C12.9632 10.4391 12.9106 10.2205 12.8593 9.9823L12.4573 8.11523L11.9555 6.15329C11.5576 4.59816 10.4263 3.36863 8.96418 2.87335C8.50808 2.71886 8.03089 2.64165 7.55308 2.64125C7.53555 2.64248 7.51785 2.6431 7.5 2.6431C7.48701 2.6431 7.47411 2.64277 7.46128 2.64212ZM5.85014 15.0881C6.05585 15.6478 6.5148 16.0619 7.06868 16.1978C7.35236 16.2674 7.64764 16.2674 7.93132 16.1978C8.4852 16.0619 8.94415 15.6478 9.14986 15.0881C8.05125 15.1659 6.94875 15.1659 5.85014 15.0881Z" fill="#222433"/>
</svg>
