<svg width="18" height="22" viewBox="0 0 18 22" fill="none" xmlns="http://www.w3.org/2000/svg">
<path fill-rule="evenodd" clip-rule="evenodd" d="M9.38897 1.83317C7.31464 1.83317 5.68526 3.44713 5.68526 5.37484C5.68526 7.30254 7.31464 8.9165 9.38897 8.9165C11.4633 8.9165 13.0927 7.30254 13.0927 5.37484C13.0927 3.44713 11.4633 1.83317 9.38897 1.83317ZM4.0186 5.37484C4.0186 2.47005 6.45182 0.166504 9.38897 0.166504C12.3261 0.166504 14.7593 2.47005 14.7593 5.37484C14.7593 8.27963 12.3261 10.5832 9.38897 10.5832C6.45182 10.5832 4.0186 8.27963 4.0186 5.37484ZM12.3514 14.2981C10.3888 13.9745 8.38909 13.9745 6.42652 14.2981L6.19566 14.3361L6.0601 13.5139L6.19566 14.3361C4.05429 14.6892 2.4445 16.6084 2.4445 18.9015C2.4445 19.6259 3.00615 20.1665 3.64242 20.1665H15.1355C15.7717 20.1665 16.3334 19.6259 16.3334 18.9015C16.3334 16.6084 14.7236 14.6892 12.5822 14.3361L12.7178 13.5139L12.5822 14.3361L12.3514 14.2981ZM12.6225 12.6536L12.4869 13.4758L12.6225 12.6536L12.8533 12.6917C15.838 13.1837 18.0001 15.8321 18.0001 18.9015C18.0001 20.4949 16.7429 21.8332 15.1355 21.8332H3.64242C2.03503 21.8332 0.777832 20.4949 0.777832 18.9015C0.777832 15.8321 2.93987 13.1837 5.92454 12.6917L6.1554 12.6536L6.29097 13.4758L6.15541 12.6536C8.2975 12.3004 10.4804 12.3004 12.6225 12.6536Z" fill="#B0B1BC"/>
</svg>
