<svg width="16" height="20" viewBox="0 0 16 20" fill="none" xmlns="http://www.w3.org/2000/svg">
<path d="M0.444336 17.9016C0.444336 15.2204 2.33025 12.9366 4.89327 12.5141L5.12414 12.476C7.17647 12.1376 9.26776 12.1376 11.3201 12.476L11.551 12.5141C14.114 12.9366 15.9999 15.2204 15.9999 17.9016C15.9999 19.0605 15.0905 20 13.9686 20H2.47559C1.35376 20 0.444336 19.0605 0.444336 17.9016Z" fill="#3E7EFF"/>
<path d="M12.7592 4.375C12.7592 6.79125 10.7279 8.75 8.22214 8.75C5.7164 8.75 3.6851 6.79125 3.6851 4.375C3.6851 1.95875 5.7164 0 8.22214 0C10.7279 0 12.7592 1.95875 12.7592 4.375Z" fill="#3E7EFF"/>
</svg>
