<svg width="15" height="15" viewBox="0 0 15 15" fill="none" xmlns="http://www.w3.org/2000/svg">
<path fill-rule="evenodd" clip-rule="evenodd" d="M7.18257 1.75C4.18225 1.75 1.75 4.18225 1.75 7.18257C1.75 10.1829 4.18225 12.6151 7.18257 12.6151C10.1829 12.6151 12.6151 10.1829 12.6151 7.18257C12.6151 4.18225 10.1829 1.75 7.18257 1.75ZM0.25 7.18257C0.25 3.35382 3.35382 0.25 7.18257 0.25C11.0113 0.25 14.1151 3.35382 14.1151 7.18257C14.1151 11.0113 11.0113 14.1151 7.18257 14.1151C3.35382 14.1151 0.25 11.0113 0.25 7.18257Z" fill="#130F26"/>
<path fill-rule="evenodd" clip-rule="evenodd" d="M10.9516 11.2741C11.2441 10.9808 11.719 10.9802 12.0123 11.2727L14.4362 13.6903C14.7295 13.9828 14.7301 14.4577 14.4376 14.751C14.1451 15.0443 13.6702 15.0449 13.3769 14.7524L10.953 12.3347C10.6597 12.0422 10.6591 11.5674 10.9516 11.2741Z" fill="#130F26"/>
</svg>
