<svg width="20" height="20" viewBox="0 0 20 20" fill="none" xmlns="http://www.w3.org/2000/svg">
<path fill-rule="evenodd" clip-rule="evenodd" d="M10.4538 1.76534C10.3187 1.74488 10.1813 1.74488 10.0462 1.76534C9.5874 1.83484 9.24824 2.22923 9.24824 2.6933V3.87397C9.24824 4.2089 9.02616 4.50324 8.70408 4.59517C8.28848 4.71378 7.89243 4.87914 7.52193 5.0853C7.22915 5.2482 6.86384 5.19717 6.62693 4.96025L5.79171 4.12504C5.46357 3.7969 4.94488 3.75784 4.5713 4.03314C4.46132 4.11418 4.36418 4.21133 4.28314 4.3213C4.00783 4.69489 4.04689 5.21359 4.37503 5.54173L5.21024 6.37694C5.44716 6.61385 5.4982 6.97917 5.33529 7.27194C5.12913 7.64244 4.96378 8.03849 4.84516 8.45409C4.75324 8.77616 4.4589 8.99825 4.12396 8.99825H2.9433C2.47923 8.99825 2.08484 9.3374 2.01534 9.79624L1.27466 9.68405L2.01534 9.79624C1.99488 9.93131 1.99488 10.0687 2.01534 10.2038L1.2738 10.3161L2.01534 10.2038C2.08484 10.6626 2.47923 11.0017 2.94329 11.0017H4.12396C4.4589 11.0017 4.75324 11.2238 4.84516 11.5459C4.96378 11.9615 5.12913 12.3576 5.33529 12.7281C5.4982 13.0208 5.44716 13.3861 5.21024 13.6231L4.37504 14.4583C4.0469 14.7864 4.00784 15.3051 4.28314 15.6787L3.67937 16.1236L4.28314 15.6787C4.36418 15.7887 4.46133 15.8858 4.5713 15.9669L4.12638 16.5706L4.57131 15.9669C4.94489 16.2422 5.46358 16.2031 5.79172 15.875L6.62693 15.0398C6.86384 14.8028 7.22915 14.7518 7.52193 14.9147C7.89243 15.1209 8.28848 15.2862 8.70408 15.4048C9.02616 15.4968 9.24824 15.7911 9.24824 16.126V17.3067C9.24824 17.7708 9.5874 18.1652 10.0462 18.2346L9.93392 18.9762L10.0462 18.2347C10.1813 18.2551 10.3187 18.2551 10.4538 18.2347L10.5661 18.9762L10.4538 18.2346C10.9126 18.1652 11.2517 17.7708 11.2517 17.3067V16.126C11.2517 15.7911 11.4738 15.4968 11.7959 15.4048C12.2115 15.2862 12.6076 15.1209 12.9781 14.9147C13.2708 14.7518 13.6361 14.8028 13.8731 15.0398L14.7083 15.875C15.0364 16.2031 15.5551 16.2422 15.9287 15.9669L16.3736 16.5706L15.9287 15.9669C16.0387 15.8858 16.1358 15.7887 16.2169 15.6787L16.8206 16.1236L16.2169 15.6787C16.4922 15.3051 16.4531 14.7864 16.125 14.4583L15.2898 13.6231C15.0528 13.3862 15.0018 13.0209 15.1647 12.7281C15.3709 12.3576 15.5362 11.9615 15.6548 11.5459C15.7468 11.2238 16.0411 11.0017 16.376 11.0017H17.5567C18.0208 11.0017 18.4152 10.6626 18.4846 10.2038C18.5051 10.0687 18.5051 9.93131 18.4846 9.79624C18.4152 9.3374 18.0208 8.99825 17.5567 8.99825H16.376C16.0411 8.99825 15.7468 8.77616 15.6548 8.45409C15.5362 8.03848 15.3709 7.64244 15.1647 7.27193C15.0018 6.97916 15.0528 6.61384 15.2898 6.37693L16.125 5.54171C16.4531 5.21358 16.4922 4.69488 16.2169 4.3213C16.1358 4.21132 16.0387 4.11418 15.9287 4.03314C15.5551 3.75783 15.0364 3.79689 14.7083 4.12503L13.8731 4.96024C13.6361 5.19716 13.2708 5.2482 12.9781 5.08529C12.6076 4.87913 12.2115 4.71378 11.7959 4.59516C11.4738 4.50324 11.2517 4.2089 11.2517 3.87396V2.69329C11.2517 2.22923 10.9126 1.83484 10.4538 1.76534ZM9.82161 0.282259C10.1056 0.239247 10.3944 0.239247 10.6784 0.282259C11.8705 0.462824 12.7517 1.48755 12.7517 2.69329V3.33222C12.9022 3.3887 13.0503 3.45013 13.1957 3.51629L13.6476 3.06437C14.5002 2.21178 15.8479 2.1103 16.8186 2.8256C17.0498 2.99599 17.254 3.20023 17.4244 3.43144C18.1397 4.40209 18.0382 5.74979 17.1856 6.60237L16.7337 7.05429C16.7999 7.19971 16.8613 7.34776 16.9178 7.49825H17.5567C18.7624 7.49825 19.7872 8.37946 19.9677 9.57161C20.0107 9.85558 20.0107 10.1444 19.9677 10.4284C19.7872 11.6205 18.7624 12.5017 17.5567 12.5017H16.9178C16.8613 12.6522 16.7999 12.8003 16.7337 12.9457L17.1856 13.3976C18.0382 14.2502 18.1397 15.5979 17.4244 16.5686C17.254 16.7998 17.0498 17.004 16.8186 17.1744C15.8479 17.8897 14.5002 17.7882 13.6476 16.9356L13.1957 16.4837C13.0503 16.5499 12.9022 16.6113 12.7517 16.6678V17.3067C12.7517 18.5124 11.8705 19.5372 10.6784 19.7177C10.3944 19.7607 10.1056 19.7607 9.8216 19.7177C8.62945 19.5372 7.74824 18.5124 7.74824 17.3067V16.6678C7.59776 16.6113 7.44971 16.5499 7.30429 16.4837L6.85238 16.9356C5.99979 17.7882 4.6521 17.8897 3.68145 17.1744C3.45023 17.004 3.24599 16.7998 3.0756 16.5686C2.36031 15.5979 2.46179 14.2502 3.31438 13.3976L3.76629 12.9457C3.70013 12.8003 3.6387 12.6522 3.58222 12.5017H2.94329C1.73755 12.5017 0.712826 11.6205 0.53226 10.4284C0.489247 10.1444 0.489247 9.85558 0.53226 9.5716L1.2738 9.68392L0.53226 9.5716C0.712825 8.37946 1.73755 7.49825 2.9433 7.49825H3.58222C3.63871 7.34777 3.70013 7.19972 3.76629 7.05431L3.31437 6.60239C2.46178 5.7498 2.3603 4.4021 3.0756 3.43144C3.24599 3.20023 3.45023 2.99599 3.68144 2.8256C4.65209 2.11031 5.99979 2.21179 6.85237 3.06438L7.30429 3.51629C7.44971 3.45013 7.59776 3.38871 7.74824 3.33222V2.6933C7.74824 1.48755 8.62946 0.462823 9.82161 0.282259ZM7.00014 10.0001C7.00014 8.20522 8.45522 6.75014 10.2501 6.75014C12.0451 6.75014 13.5001 8.20522 13.5001 10.0001C13.5001 11.7951 12.0451 13.2501 10.2501 13.2501C8.45522 13.2501 7.00014 11.7951 7.00014 10.0001ZM10.2501 8.25014C9.28364 8.25014 8.50014 9.03364 8.50014 10.0001C8.50014 10.9666 9.28364 11.7501 10.2501 11.7501C11.2166 11.7501 12.0001 10.9666 12.0001 10.0001C12.0001 9.03364 11.2166 8.25014 10.2501 8.25014Z" fill="#B0B1BC"/>
</svg>
