<svg width="21" height="20" viewBox="0 0 21 20" fill="none" xmlns="http://www.w3.org/2000/svg">
<path fill-rule="evenodd" clip-rule="evenodd" d="M8.25 18C8.25 19.1046 9.14543 20 10.25 20C11.3546 20 12.25 19.1046 12.25 18V16.7101C12.7155 16.5716 13.1608 16.3859 13.5802 16.1586L14.4926 17.0711C15.2737 17.8521 16.54 17.8521 17.3211 17.0711C18.1021 16.29 18.1021 15.0237 17.3211 14.2427L16.4086 13.3302C16.6359 12.9108 16.8216 12.4655 16.9601 12H18.25C19.3546 12 20.25 11.1046 20.25 10C20.25 8.89543 19.3546 8 18.25 8H16.9601C16.8216 7.53446 16.6359 7.08922 16.4086 6.6698L17.3211 5.75737C18.1021 4.97632 18.1021 3.70999 17.3211 2.92894C16.54 2.14789 15.2737 2.14789 14.4926 2.92894L13.5802 3.84138C13.1608 3.61411 12.7155 3.42843 12.25 3.28988V2C12.25 0.895431 11.3546 0 10.25 0C9.14543 0 8.25 0.895431 8.25 2V3.28988C7.78446 3.42843 7.33922 3.61411 6.9198 3.84138L6.00737 2.92894C5.22632 2.14789 3.95999 2.14789 3.17894 2.92894C2.39789 3.70999 2.39789 4.97632 3.17894 5.75737L4.09138 6.66981C3.86411 7.08922 3.67843 7.53446 3.53988 8H2.25C1.14543 8 0.25 8.89543 0.25 10C0.25 11.1046 1.14543 12 2.25 12H3.53988C3.67843 12.4655 3.86411 12.9108 4.09138 13.3302L3.17892 14.2426C2.39787 15.0237 2.39787 16.29 3.17892 17.0711C3.95997 17.8521 5.2263 17.8521 6.00735 17.0711L6.9198 16.1586C7.33922 16.3859 7.78446 16.5716 8.25 16.7101V18ZM10.25 13C11.9068 13 13.25 11.6568 13.25 9.99999C13.25 8.34313 11.9068 6.99999 10.25 6.99999C8.59313 6.99999 7.24999 8.34313 7.24999 9.99999C7.24999 11.6568 8.59313 13 10.25 13Z" fill="#3E7EFF"/>
</svg>
