<svg width="12" height="12" viewBox="0 0 12 12" fill="currentColor" xmlns="http://www.w3.org/2000/svg">
<path fill-rule="evenodd" clip-rule="evenodd" d="M3.45906 6.149C3.258 5.29188 3.25801 4.39985 3.45906 3.54273C3.73746 2.35588 4.66415 1.42919 5.851 1.15079C6.70812 0.949737 7.60015 0.949736 8.45727 1.15079C9.64412 1.42919 10.5708 2.35589 10.8492 3.54273C11.0503 4.39985 11.0503 5.29188 10.8492 6.149C10.5708 7.33585 9.64412 8.26255 8.45727 8.54094C7.60015 8.74199 6.70812 8.74199 5.851 8.54094M3.45906 6.149C3.73746 7.33585 4.66415 8.26255 5.851 8.54094M3.45906 6.149C3.33247 5.60932 3.28558 5.0558 3.31841 4.50587C3.27199 4.51535 3.22568 4.5255 3.17948 4.53634C2.16219 4.77496 1.36787 5.56927 1.12925 6.58657C0.956917 7.32125 0.956917 8.08584 1.12925 8.82052C1.36787 9.83781 2.16219 10.6321 3.17948 10.8708C3.91416 11.0431 4.67875 11.0431 5.41343 10.8708C6.43073 10.6321 7.22504 9.83781 7.46366 8.82052C7.4745 8.77432 7.48465 8.72801 7.49413 8.68159C6.9442 8.71442 6.39068 8.66753 5.851 8.54094"/>
</svg>
