<svg width="22" height="20" viewBox="0 0 22 20" fill="currentColor" xmlns="http://www.w3.org/2000/svg">
<path fill-rule="evenodd" clip-rule="evenodd" d="M8.04668 2.07329C9.99198 1.64224 12.008 1.64224 13.9533 2.07329L14.4072 2.17386C16.8537 2.71598 18.7826 4.5968 19.3867 7.0295C19.8711 8.9802 19.8711 11.0198 19.3867 12.9705C18.7826 15.4032 16.8537 17.284 14.4072 17.8261L13.9533 17.9267C12.008 18.3578 9.99198 18.3578 8.04668 17.9267L7.59281 17.8261C5.14627 17.284 3.21736 15.4032 2.61329 12.9705C2.1289 11.0198 2.1289 8.9802 2.61329 7.02949C3.21736 4.59679 5.14627 2.71598 7.59281 2.17386L8.04668 2.07329ZM14.2778 0.60881C12.1188 0.130397 9.88122 0.130397 7.72218 0.608809L7.2683 0.70938C4.26576 1.3747 1.89874 3.68288 1.1575 6.668C0.614168 8.8561 0.614167 11.1439 1.1575 13.332C1.89874 16.3171 4.26576 18.6253 7.2683 19.2906L7.72218 19.3912C9.88122 19.8696 12.1188 19.8696 14.2778 19.3912L14.7317 19.2906C17.7342 18.6253 20.1013 16.3171 20.8425 13.332C21.3858 11.1439 21.3858 8.8561 20.8425 6.66801C20.1013 3.68288 17.7342 1.3747 14.7317 0.709379L14.2778 0.60881ZM11.6926 5.65217C11.6926 5.29199 11.3826 5 11.0002 5C10.6179 5 10.3079 5.29199 10.3079 5.65217V6.18573H10.0334C8.85491 6.18573 8 7.14934 8 8.2161C8 9.05418 8.5233 9.84551 9.37272 10.1365L10.3079 10.4568V12.5098H10.2308C9.81892 12.5098 9.38462 12.1486 9.38462 11.581C9.38462 11.2208 9.07466 10.9288 8.69231 10.9288C8.30996 10.9288 8 11.2208 8 11.581C8 12.7598 8.94328 13.8142 10.2308 13.8142H10.3079V14.3478C10.3079 14.708 10.6179 15 11.0002 15C11.3826 15 11.6926 14.708 11.6926 14.3478V13.8142H11.9666C13.1451 13.8142 14 12.8506 14 11.7838C14 10.9457 13.4767 10.1544 12.6273 9.86344L11.6926 9.54325V7.49008H11.7692C12.1811 7.49008 12.6154 7.85137 12.6154 8.41893C12.6154 8.77912 12.9253 9.07111 13.3077 9.07111C13.69 9.07111 14 8.77912 14 8.41893C14 7.24015 13.0567 6.18573 11.7692 6.18573H11.6926V5.65217ZM10.0334 7.49008H10.3079V9.06894L9.8459 8.91066C9.60007 8.82645 9.38462 8.56446 9.38462 8.2161C9.38462 7.76055 9.73056 7.49008 10.0334 7.49008ZM11.6926 12.5098V10.9312L12.1541 11.0893C12.3999 11.1735 12.6154 11.4355 12.6154 11.7838C12.6154 12.2394 12.2694 12.5098 11.9666 12.5098H11.6926Z"/>
</svg>
