<svg width="24" height="24" viewBox="0 0 24 24" fill="none" xmlns="http://www.w3.org/2000/svg">
<path d="M8 12C8 14.2091 9.79086 16 12 16C14.2091 16 16 14.2091 16 12C16 9.79086 14.2091 8 12 8C9.79086 8 8 9.79086 8 12Z" stroke="#23262F" stroke-width="1.5" stroke-linecap="round" stroke-linejoin="round"/>
<path d="M6.3 6.3L5.6 5.6M12 3L12 4L12 3ZM21 12L20 12L21 12ZM12 20L12 21L12 20ZM4 12L3 12L4 12ZM18.4 5.6L17.7 6.3L18.4 5.6ZM18.4 18.4L17.7 17.7L18.4 18.4ZM6.3 17.7L5.6 18.4L6.3 17.7Z" stroke="#23262F" stroke-width="1.5" stroke-linecap="round" stroke-linejoin="round"/>
</svg>
