<svg width="20" height="20" viewBox="0 0 20 20" fill="none" xmlns="http://www.w3.org/2000/svg">
<path fill-rule="evenodd" clip-rule="evenodd" d="M12.8783 2.08306C10.9851 1.63898 9.01488 1.63898 7.12171 2.08306C4.62161 2.6695 2.6695 4.6216 2.08306 7.12171C1.63898 9.01488 1.63898 10.9851 2.08306 12.8783C2.6695 15.3784 4.62161 17.3305 7.12171 17.9169C9.01488 18.361 10.9851 18.361 12.8783 17.9169C15.3784 17.3305 17.3305 15.3784 17.9169 12.8783C18.361 10.9851 18.361 9.01488 17.9169 7.12171C17.3305 4.62161 15.3784 2.6695 12.8783 2.08306ZM6.77916 0.622695C8.89764 0.125768 11.1024 0.125769 13.2208 0.622696C16.2756 1.33924 18.6608 3.72441 19.3773 6.77916C19.8742 8.89764 19.8742 11.1024 19.3773 13.2208C18.6608 16.2756 16.2756 18.6608 13.2208 19.3773C11.1024 19.8742 8.89764 19.8742 6.77916 19.3773C3.72442 18.6608 1.33924 16.2756 0.622697 13.2209C0.125768 11.1024 0.125768 8.89763 0.622697 6.77915C1.33924 3.72441 3.72441 1.33924 6.77916 0.622695ZM11 7.75H7V6.25H11V7.75ZM13 10.75H7V9.25H13V10.75ZM10 13.75H7V12.25H10V13.75Z" fill="#23262F"/>
</svg>
