<svg width="20" height="20" viewBox="0 0 20 20" fill="none" xmlns="http://www.w3.org/2000/svg">
<path fill-rule="evenodd" clip-rule="evenodd" d="M10 0C10.5523 0 11 0.447715 11 1V5.72749C11 6.27977 10.5523 6.72749 10 6.72749C9.44771 6.72749 9 6.27977 9 5.72749V1C9 0.447715 9.44771 0 10 0ZM15.6631 2.65045C16.057 2.26337 16.6902 2.26894 17.0772 2.66287C18.4744 4.0848 19.424 5.89434 19.8085 7.86174C20.193 9.82906 19.9958 11.8684 19.2411 13.7227C18.4864 15.577 17.2071 17.1648 15.5625 18.2833C13.9176 19.4018 11.9818 20 10 20C8.01824 20 6.08247 19.4018 4.43756 18.2833C2.79286 17.1648 1.5136 15.5771 0.758868 13.7227C0.00419325 11.8684 -0.193003 9.82908 0.191503 7.86176C0.576026 5.89435 1.52558 4.08482 2.92274 2.66289C3.30982 2.26895 3.94296 2.26338 4.3369 2.65046C4.73084 3.03754 4.7364 3.67068 4.34932 4.06462C3.22915 5.20465 2.46437 6.65925 2.15436 8.24539C1.84434 9.83161 2.00361 11.4756 2.61132 12.9687C3.21896 14.4617 4.24681 15.7349 5.5622 16.6294C6.87737 17.5238 8.42171 18 10 18C11.5783 18 13.1226 17.5238 14.4378 16.6294C15.7532 15.7349 16.781 14.4617 17.3887 12.9687C17.9964 11.4756 18.1557 9.8316 17.8456 8.24538C17.5356 6.65924 16.7708 5.20464 15.6507 4.06461C15.2636 3.67067 15.2691 3.03753 15.6631 2.65045Z" fill="#3E7EFF"/>
</svg>
