<svg width="20" height="20" viewBox="0 0 20 20" fill="none" xmlns="http://www.w3.org/2000/svg">
<path fill-rule="evenodd" clip-rule="evenodd" d="M0.25 5C0.25 2.37665 2.37665 0.25 5 0.25V1.75C3.20507 1.75 1.75 3.20507 1.75 5H0.25ZM14 0.25C17.0108 0.25 19.75 2.22912 19.75 5H18.25C18.25 3.3526 16.512 1.75 14 1.75V0.25ZM10 5.75C9.29254 5.75 8.70833 6.33005 8.70833 7.05882C8.70833 7.7876 9.29254 8.36765 10 8.36765C10.7075 8.36765 11.2917 7.7876 11.2917 7.05882C11.2917 6.33005 10.7075 5.75 10 5.75ZM7.20833 7.05882C7.20833 5.51348 8.4523 4.25 10 4.25C11.5477 4.25 12.7917 5.51348 12.7917 7.05882C12.7917 8.60416 11.5477 9.86765 10 9.86765C8.4523 9.86765 7.20833 8.60416 7.20833 7.05882ZM8.29083 12.5053C7.69583 12.6011 7.25 13.1211 7.25 13.7409V13.9586C7.25 14.1255 7.38247 14.25 7.53269 14.25H12.4673C12.6175 14.25 12.75 14.1255 12.75 13.9586V13.7409C12.75 13.1211 12.3042 12.6011 11.7092 12.5053C10.5769 12.3231 9.42312 12.3231 8.29083 12.5053ZM8.0525 11.0244C9.34266 10.8167 10.6573 10.8167 11.9475 11.0244C13.2786 11.2386 14.25 12.3938 14.25 13.7409V13.9586C14.25 14.942 13.4578 15.75 12.4673 15.75H7.53269C6.54223 15.75 5.75 14.942 5.75 13.9586V13.7409C5.75 12.3938 6.72142 11.2386 8.0525 11.0244ZM5 19.75C2.22912 19.75 0.25 17.0108 0.25 14H1.75C1.75 16.512 3.3526 18.25 5 18.25V19.75ZM19.75 14C19.75 17.1756 17.1756 19.75 14 19.75V18.25C16.3472 18.25 18.25 16.3472 18.25 14H19.75Z" fill="#23262F"/>
</svg>
