<svg width="24" height="24" viewBox="0 0 24 24" fill="none" xmlns="http://www.w3.org/2000/svg">
<path d="M1.44624 15.5014L2.17233 15.3135L1.44624 15.5014ZM1.44624 8.49861L2.17233 8.68649L1.44624 8.49861ZM22.5538 8.49862L23.2798 8.31073L22.5538 8.49862ZM22.5538 15.5014L21.8277 15.3135L22.5538 15.5014ZM15.6075 21.6211L15.4515 20.8875L15.4515 20.8875L15.6075 21.6211ZM8.3925 21.6211L8.54848 20.8875L8.54848 20.8875L8.3925 21.6211ZM8.3925 2.37894L8.54848 3.11254L8.54848 3.11254L8.3925 2.37894ZM15.6075 2.37894L15.7635 1.64534L15.7635 1.64534L15.6075 2.37894ZM7.86696 21.5093L7.71097 22.2429L7.71097 22.2429L7.86696 21.5093ZM16.133 21.5093L16.289 22.2429L16.289 22.2429L16.133 21.5093ZM16.133 2.49069L15.9771 3.22429L15.9771 3.22429L16.133 2.49069ZM7.86696 2.49069L7.71097 1.75709L7.71097 1.75709L7.86696 2.49069ZM8.02295 3.22429L8.54848 3.11254L8.23651 1.64534L7.71097 1.75709L8.02295 3.22429ZM15.4515 3.11254L15.9771 3.22429L16.289 1.75709L15.7635 1.64534L15.4515 3.11254ZM15.977 20.7757L15.4515 20.8875L15.7635 22.3547L16.289 22.2429L15.977 20.7757ZM8.54848 20.8875L8.02295 20.7757L7.71097 22.2429L8.23651 22.3547L8.54848 20.8875ZM2.17233 15.3135C1.60922 13.1374 1.60922 10.8626 2.17233 8.68649L0.72016 8.31072C0.0932802 10.7333 0.0932798 13.2667 0.72016 15.6893L2.17233 15.3135ZM21.8277 8.6865C22.3908 10.8626 22.3908 13.1374 21.8277 15.3135L23.2798 15.6893C23.9067 13.2667 23.9067 10.7333 23.2798 8.31073L21.8277 8.6865ZM15.4515 20.8875C13.1782 21.3708 10.8218 21.3708 8.54848 20.8875L8.23651 22.3547C10.7155 22.8818 13.2845 22.8818 15.7635 22.3547L15.4515 20.8875ZM8.54848 3.11254C10.8218 2.62915 13.1782 2.62915 15.4515 3.11254L15.7635 1.64534C13.2845 1.11822 10.7156 1.11822 8.23651 1.64534L8.54848 3.11254ZM8.02295 20.7757C5.13315 20.1612 2.87665 18.0353 2.17233 15.3135L0.72016 15.6893C1.57357 18.9872 4.2913 21.5158 7.71097 22.2429L8.02295 20.7757ZM16.289 22.2429C19.7087 21.5158 22.4264 18.9872 23.2798 15.6893L21.8277 15.3135C21.1234 18.0353 18.8668 20.1612 15.977 20.7757L16.289 22.2429ZM15.9771 3.22429C18.8669 3.83875 21.1234 5.96466 21.8277 8.6865L23.2798 8.31073C22.4264 5.01276 19.7087 2.48422 16.289 1.75709L15.9771 3.22429ZM7.71097 1.75709C4.29131 2.48422 1.57357 5.01275 0.72016 8.31072L2.17233 8.68649C2.87665 5.96466 5.13315 3.83875 8.02295 3.22429L7.71097 1.75709Z" fill="#F29339"/>
<path fill-rule="evenodd" clip-rule="evenodd" d="M12.0002 6C12.3826 6 12.6926 6.35039 12.6926 6.78261V7.42288H12.7692C14.0567 7.42288 15 8.68818 15 10.1027C15 10.5349 14.69 10.8853 14.3077 10.8853C13.9253 10.8853 13.6154 10.5349 13.6154 10.1027C13.6154 9.42164 13.1811 8.9881 12.7692 8.9881H12.6926V11.4519L13.6273 11.8361C14.4767 12.1853 15 13.1349 15 14.1406C15 15.4207 14.1451 16.577 12.9666 16.577H12.6926V17.2174C12.6926 17.6496 12.3826 18 12.0002 18C11.6179 18 11.3079 17.6496 11.3079 17.2174V16.577H11.2308C9.94328 16.577 9 15.3117 9 13.8972C9 13.465 9.30996 13.1146 9.69231 13.1146C10.0747 13.1146 10.3846 13.465 10.3846 13.8972C10.3846 14.5783 10.8189 15.0118 11.2308 15.0118H11.3079V12.5482L10.3727 12.1638C9.5233 11.8146 9 10.865 9 9.85932C9 8.57921 9.85491 7.42288 11.0334 7.42288H11.3079V6.78261C11.3079 6.35039 11.6179 6 12.0002 6ZM11.3079 8.9881H11.0334C10.7306 8.9881 10.3846 9.31267 10.3846 9.85932C10.3846 10.2774 10.6001 10.5917 10.8459 10.6928L11.3079 10.8827V8.9881ZM12.6926 13.1174V15.0118H12.9666C13.2694 15.0118 13.6154 14.6872 13.6154 14.1406C13.6154 13.7226 13.3999 13.4082 13.1541 13.3071L12.6926 13.1174Z" fill="#F29339"/>
</svg>
