<svg width="24" height="24" viewBox="0 0 24 24" fill="none" xmlns="http://www.w3.org/2000/svg">
<path d="M5.93477 11.6667L3.30975 14.31L0.666504 11.6667L3.30975 9.0235L5.93477 11.6667ZM12.3333 5.26827L16.8541 9.78913L19.4974 7.14588L14.9765 2.64325L12.3333 0L5.18737 7.14588L7.83062 9.78913L12.3333 5.26827ZM21.3568 9.0235L18.7317 11.6667L21.375 14.31L24 11.6667L21.3568 9.0235ZM12.3333 18.0652L7.81239 13.5444L5.18737 16.1876L12.3333 23.3335L19.4974 16.1694L16.8541 13.5444L12.3333 18.0652ZM12.3333 14.31L14.9765 11.6667L12.3333 9.0235L9.69 11.6667L12.3333 14.31Z" fill="#F0B90B"/>
</svg>
