<svg width="20" height="20" viewBox="0 0 20 20" fill="none" xmlns="http://www.w3.org/2000/svg">
<path fill-rule="evenodd" clip-rule="evenodd" d="M10 1.75C9.03414 1.75 8.06829 1.86102 7.12171 2.08306C4.62161 2.6695 2.6695 4.6216 2.08306 7.12171C1.63898 9.01488 1.63898 10.9851 2.08306 12.8783C2.6695 15.3784 4.62161 17.3305 7.12171 17.9169C9.01488 18.361 10.9851 18.361 12.8783 17.9169C15.3784 17.3305 17.3305 15.3784 17.9169 12.8783C18.139 11.9317 18.25 10.9658 18.25 9.99997C18.25 9.58576 18.5858 9.24997 19 9.24997C19.4142 9.24997 19.75 9.58576 19.75 9.99997C19.75 11.0808 19.6258 12.1616 19.3773 13.2208C18.6608 16.2756 16.2756 18.6608 13.2208 19.3773C11.1024 19.8742 8.89764 19.8742 6.77916 19.3773C3.72442 18.6608 1.33924 16.2756 0.622697 13.2209C0.125768 11.1024 0.125768 8.89763 0.622697 6.77915C1.33924 3.72441 3.72441 1.33924 6.77916 0.622696C7.83839 0.374233 8.9192 0.25 10 0.25C10.4142 0.25 10.75 0.585786 10.75 1C10.75 1.41421 10.4142 1.75 10 1.75ZM14.25 1C14.25 0.585786 14.5858 0.25 15 0.25H19C19.4142 0.25 19.75 0.585786 19.75 1V5.66667C19.75 6.08088 19.4142 6.41667 19 6.41667C18.5858 6.41667 18.25 6.08088 18.25 5.66667V2.88219L10.5445 11.0158C10.2596 11.3165 9.78489 11.3293 9.48419 11.0445C9.18349 10.7596 9.17066 10.2849 9.45554 9.98419L17.2563 1.75H15C14.5858 1.75 14.25 1.41421 14.25 1Z" fill="#8A3EFF"/>
</svg>
