<svg width="23" height="23" viewBox="0 0 23 23" fill="none" xmlns="http://www.w3.org/2000/svg">
<path d="M10.8505 5.00008H5.14942C4.84459 5.00008 4.55226 5.11583 4.33674 5.32187C4.12123 5.52807 4 5.80754 4 6.09898V10.3407C4 10.5156 4.07264 10.6833 4.20205 10.8071C4.33145 10.9306 4.50688 11.0001 4.68969 11.0001H11.3103C11.4931 11.0001 11.6685 10.9306 11.798 10.8071C11.9274 10.6834 12 10.5156 12 10.3407V6.09898C12 5.80755 11.8788 5.52807 11.6633 5.32187C11.4477 5.11583 11.1554 5.00008 10.8505 5.00008ZM11.3213 7.97744C11.3152 9.2476 10.2839 10.274 9.01369 10.274H7.14424C5.90242 10.274 4.89574 9.26735 4.89574 8.02554C4.89574 6.71837 5.95541 5.65869 7.26258 5.65869H9.01369C10.2925 5.65869 11.3275 6.69863 11.3213 7.97744Z" fill="#1BE3A2"/>
<path d="M18.6016 1.36271C18.2454 1.05171 17.705 1.08623 17.3913 1.44002C17.074 1.79786 17.1091 2.34574 17.4696 2.66006L19.7983 4.69055C20.6531 5.4359 21.1437 6.51457 21.1437 7.6487V17.7979C21.1243 18.1799 20.9091 18.5251 20.5745 18.7109C20.2401 18.8966 19.8333 18.8966 19.4987 18.7109C19.164 18.5251 18.9488 18.1799 18.9295 17.7979V9.76061C18.9295 9.07882 18.6587 8.42469 18.1763 7.94239C17.694 7.4601 17.0401 7.18923 16.3581 7.18923C16.003 7.18923 15.7152 6.90137 15.7152 6.54627V4.99775C15.7152 3.93688 15.2936 2.91949 14.5437 2.16928C13.7935 1.41933 12.7761 0.997803 11.7152 0.997803H4.00093C2.94006 0.997803 1.92266 1.41932 1.17246 2.16928C0.422507 2.91944 0.000976562 3.93688 0.000976562 4.99775V21.9437C0.000976562 22.1711 0.0912571 22.3891 0.252094 22.5499C0.412726 22.7106 0.630762 22.8009 0.858165 22.8009H14.8582C15.0856 22.8009 15.3036 22.7106 15.4642 22.5499C15.6251 22.3891 15.7154 22.1711 15.7154 21.9437V9.54683C15.7154 9.19174 16.0032 8.90387 16.3583 8.90387C16.5855 8.90387 16.8035 8.99415 16.9644 9.15479C17.125 9.31562 17.2153 9.53366 17.2153 9.76087V17.7981C17.2468 18.7846 17.7913 19.6833 18.6514 20.1678C19.5114 20.6522 20.5621 20.6522 21.4223 20.1678C22.2822 19.6833 22.8267 18.7846 22.8583 17.7981V5.47515C22.8603 5.22902 22.7562 4.99364 22.5725 4.82964L18.6016 1.36271ZM14.0007 14.9437C14.0008 18.3363 11.2505 21.0866 7.85791 21.0866C4.46533 21.0866 1.71511 18.3364 1.71511 14.9438V4.9978C1.71511 4.39173 1.95586 3.81041 2.38455 3.38168C2.81324 2.95299 3.3946 2.71224 4.00067 2.71224H11.715C12.321 2.71224 12.9024 2.953 13.3311 3.38168C13.7598 3.81037 14.0005 4.39173 14.0005 4.9978L14.0007 14.9437Z" fill="#1BE3A2"/>
</svg>
