<svg width="20" height="22" viewBox="0 0 20 22" fill="none" xmlns="http://www.w3.org/2000/svg">
<path fill-rule="evenodd" clip-rule="evenodd" d="M0.0533047 1.11819C0.126102 0.710428 0.515675 0.438882 0.923442 0.511679C2.49679 0.792561 3.75013 1.95651 4.20498 3.47741C5.09199 2.68935 6.17066 2.12072 7.36442 1.85162L7.8489 1.74241C9.76977 1.30942 11.7591 1.30942 13.68 1.74242L14.1645 1.85162C16.8363 2.45391 18.9316 4.55674 19.5919 7.26192C20.0804 9.26314 20.0804 11.3574 19.5919 13.3586C19.2108 14.9203 18.3514 16.2812 17.1789 17.2686C17.4071 17.5398 17.5774 17.8571 17.6784 18.2C17.8158 18.6662 17.8202 19.1627 17.6911 19.6313C17.5621 20.1 17.3042 20.5236 16.9451 20.8504C16.5858 21.1774 16.1403 21.3934 15.6608 21.4695C15.1812 21.5457 14.6909 21.4782 14.2492 21.2763C13.8076 21.0746 13.435 20.748 13.1732 20.3386C12.9264 19.9528 12.7871 19.5076 12.7674 19.0506C11.3816 19.2625 9.9719 19.2533 8.58823 19.0229C8.58523 19.0663 8.58115 19.1096 8.57597 19.153C8.51843 19.6343 8.32803 20.0908 8.0246 20.4682C7.721 20.8457 7.31635 21.1287 6.85672 21.2804C6.39688 21.4321 5.90375 21.4452 5.43661 21.3178C4.96964 21.1904 4.55091 20.9289 4.22848 20.5673C3.90622 20.206 3.69322 19.7596 3.61178 19.2817C3.53036 18.804 3.58334 18.3119 3.76534 17.8629C3.87218 17.5993 4.02117 17.3564 4.20566 17.1437C3.10702 16.1679 2.30231 14.8555 1.93694 13.3586C1.44846 11.3574 1.44846 9.26314 1.93694 7.26192C2.14589 6.40589 2.49853 5.61017 2.96766 4.90323L2.84147 4.21368C2.63048 3.06083 1.75172 2.18326 0.659821 1.98833C0.252054 1.91553 -0.0194922 1.52596 0.0533047 1.11819ZM5.43917 18.0258C5.3172 18.1325 5.21921 18.2691 5.15548 18.4264C5.07857 18.6161 5.0557 18.8258 5.09046 19.0297C5.12521 19.2336 5.21556 19.4205 5.34797 19.5689C5.4802 19.7172 5.64842 19.8208 5.83127 19.8706C6.01395 19.9204 6.20633 19.9154 6.38666 19.8559C6.56718 19.7964 6.73055 19.6838 6.85565 19.5282C6.98093 19.3724 7.06199 19.1806 7.08658 18.9749C7.09757 18.883 7.09699 18.7906 7.08531 18.7C6.50386 18.5438 5.95206 18.3159 5.43917 18.0258ZM14.2824 18.7413C14.2701 18.8098 14.2642 18.8798 14.265 18.9505C14.2673 19.1585 14.3277 19.3599 14.4368 19.5304C14.5458 19.7008 14.6979 19.8322 14.8726 19.9121C15.0471 19.9918 15.2387 20.0178 15.4255 19.9881C15.6124 19.9584 15.7897 19.8738 15.9355 19.741C16.0816 19.6081 16.1901 19.4323 16.2449 19.2331C16.2998 19.0338 16.2979 18.822 16.2396 18.6239C16.1812 18.4259 16.0698 18.2524 15.9215 18.1224L15.9287 18.1142C15.414 18.3879 14.8623 18.6001 14.2824 18.7413ZM13.3501 3.2057C11.6464 2.82166 9.88244 2.82166 8.17875 3.2057L7.69427 3.31491C5.59644 3.78779 3.92396 5.44708 3.39416 7.61761C2.96272 9.38513 2.96272 11.2354 3.39416 13.0029C3.40902 13.0638 3.42478 13.1243 3.44142 13.1844H18.0875C18.1041 13.1243 18.1199 13.0638 18.1347 13.0029C18.5662 11.2354 18.5662 9.38513 18.1347 7.61762C17.6049 5.44708 15.9324 3.78779 13.8346 3.31491L13.3501 3.2057ZM17.4408 14.6844H4.08811C4.88951 16.0064 6.18126 16.9646 7.69427 17.3056L8.17875 17.4148C9.88244 17.7989 11.6464 17.7989 13.3501 17.4148L13.8346 17.3056C15.3476 16.9646 16.6394 16.0064 17.4408 14.6844ZM11.4242 5.47727C11.4827 5.06722 11.8626 4.7823 12.2727 4.84088L12.3169 4.84719C14.4479 5.15162 16.1666 6.76974 16.1666 8.83334C16.1666 9.24755 15.8308 9.58334 15.4166 9.58334C15.0024 9.58334 14.6666 9.24755 14.6666 8.83334C14.6666 7.68191 13.6736 6.55624 12.1048 6.33212L12.0606 6.3258C11.6505 6.26722 11.3656 5.88732 11.4242 5.47727Z" fill="#3E7EFF"/>
</svg>
